<svg viewBox="0 0 808 238" xmlns="http://www.w3.org/2000/svg" font-family="ui-monospace, SFMono-Regular, 'JetBrains Mono', 'Cascadia Code', Menlo, Consolas, monospace">
  <style>
    .bg { fill: #0d1117; }
    .frame { fill: none; stroke: #58a6ff33; stroke-width: 1.5; }
    .titlebar { fill: #161b22; }
    .title { fill: #8b949e; font-size: 11px; }
    .label { fill: #8b949e; font-size: 9px; }
    .stat-num { fill: #58a6ff; font-weight: 700; font-size: 12px; }
    .stat-txt { fill: #c9d1d9; font-size: 12px; }
    .dim { fill: #8b949e; font-size: 11px; }
    .dot { r: 5; }
  </style>

  <rect class="bg" width="808" height="238" rx="14"/>
  <rect class="frame" x="0.75" y="0.75" width="806.5" height="236.5" rx="14"/>

  <rect class="titlebar" width="808" height="28" rx="14"/>
  <rect x="0" y="14" width="808" height="14" fill="#161b22"/>
  <circle class="dot" cx="18" cy="14" fill="#ff5f56"/>
  <circle class="dot" cx="34" cy="14" fill="#ffbd2e"/>
  <circle class="dot" cx="50" cy="14" fill="#27c93f"/>
  <text x="404" y="18" text-anchor="middle" class="title">RanaZaid26194@github: ~/contributions --graph</text>

  <text x="46" y="42" class="label">Jul</text>
<text x="74" y="42" class="label">Aug</text>
<text x="144" y="42" class="label">Sep</text>
<text x="200" y="42" class="label">Oct</text>
<text x="256" y="42" class="label">Nov</text>
<text x="326" y="42" class="label">Dec</text>
<text x="382" y="42" class="label">Jan</text>
<text x="438" y="42" class="label">Feb</text>
<text x="494" y="42" class="label">Mar</text>
<text x="564" y="42" class="label">Apr</text>
<text x="620" y="42" class="label">May</text>
<text x="690" y="42" class="label">Jun</text>
<text x="746" y="42" class="label">Jul</text>

  <text x="38" y="73" text-anchor="end" class="label">Mon</text>
<text x="38" y="101" text-anchor="end" class="label">Wed</text>
<text x="38" y="129" text-anchor="end" class="label">Fri</text>
  <rect x="46" y="50" width="11" height="11" rx="2" fill="#1e2530"><title>2025-07-20: 0 contributions</title></rect>
<rect x="46" y="64" width="11" height="11" rx="2" fill="#1e2530"><title>2025-07-21: 0 contributions</title></rect>
<rect x="46" y="78" width="11" height="11" rx="2" fill="#1e2530"><title>2025-07-22: 0 contributions</title></rect>
<rect x="46" y="92" width="11" height="11" rx="2" fill="#1e2530"><title>2025-07-23: 0 contributions</title></rect>
<rect x="46" y="106" width="11" height="11" rx="2" fill="#1e2530"><title>2025-07-24: 0 contributions</title></rect>
<rect x="46" y="120" width="11" height="11" rx="2" fill="#1e2530"><title>2025-07-25: 0 contributions</title></rect>
<rect x="46" y="134" width="11" height="11" rx="2" fill="#1e2530"><title>2025-07-26: 0 contributions</title></rect>
<rect x="60" y="50" width="11" height="11" rx="2" fill="#1e2530"><title>2025-07-27: 0 contributions</title></rect>
<rect x="60" y="64" width="11" height="11" rx="2" fill="#1e2530"><title>2025-07-28: 0 contributions</title></rect>
<rect x="60" y="78" width="11" height="11" rx="2" fill="#1e2530"><title>2025-07-29: 0 contributions</title></rect>
<rect x="60" y="92" width="11" height="11" rx="2" fill="#1e2530"><title>2025-07-30: 0 contributions</title></rect>
<rect x="60" y="106" width="11" height="11" rx="2" fill="#1e2530"><title>2025-07-31: 0 contributions</title></rect>
<rect x="60" y="120" width="11" height="11" rx="2" fill="#1e2530"><title>2025-08-01: 0 contributions</title></rect>
<rect x="60" y="134" width="11" height="11" rx="2" fill="#1e2530"><title>2025-08-02: 0 contributions</title></rect>
<rect x="74" y="50" width="11" height="11" rx="2" fill="#1e2530"><title>2025-08-03: 0 contributions</title></rect>
<rect x="74" y="64" width="11" height="11" rx="2" fill="#1e2530"><title>2025-08-04: 0 contributions</title></rect>
<rect x="74" y="78" width="11" height="11" rx="2" fill="#1e2530"><title>2025-08-05: 0 contributions</title></rect>
<rect x="74" y="92" width="11" height="11" rx="2" fill="#1e2530"><title>2025-08-06: 0 contributions</title></rect>
<rect x="74" y="106" width="11" height="11" rx="2" fill="#1e2530"><title>2025-08-07: 0 contributions</title></rect>
<rect x="74" y="120" width="11" height="11" rx="2" fill="#1e2530"><title>2025-08-08: 0 contributions</title></rect>
<rect x="74" y="134" width="11" height="11" rx="2" fill="#1e2530"><title>2025-08-09: 0 contributions</title></rect>
<rect x="88" y="50" width="11" height="11" rx="2" fill="#1e2530"><title>2025-08-10: 0 contributions</title></rect>
<rect x="88" y="64" width="11" height="11" rx="2" fill="#1e2530"><title>2025-08-11: 0 contributions</title></rect>
<rect x="88" y="78" width="11" height="11" rx="2" fill="#1e2530"><title>2025-08-12: 0 contributions</title></rect>
<rect x="88" y="92" width="11" height="11" rx="2" fill="#1e2530"><title>2025-08-13: 0 contributions</title></rect>
<rect x="88" y="106" width="11" height="11" rx="2" fill="#1e2530"><title>2025-08-14: 0 contributions</title></rect>
<rect x="88" y="120" width="11" height="11" rx="2" fill="#1e2530"><title>2025-08-15: 0 contributions</title></rect>
<rect x="88" y="134" width="11" height="11" rx="2" fill="#1e2530"><title>2025-08-16: 0 contributions</title></rect>
<rect x="102" y="50" width="11" height="11" rx="2" fill="#1e2530"><title>2025-08-17: 0 contributions</title></rect>
<rect x="102" y="64" width="11" height="11" rx="2" fill="#1e2530"><title>2025-08-18: 0 contributions</title></rect>
<rect x="102" y="78" width="11" height="11" rx="2" fill="#1e2530"><title>2025-08-19: 0 contributions</title></rect>
<rect x="102" y="92" width="11" height="11" rx="2" fill="#1e2530"><title>2025-08-20: 0 contributions</title></rect>
<rect x="102" y="106" width="11" height="11" rx="2" fill="#1e2530"><title>2025-08-21: 0 contributions</title></rect>
<rect x="102" y="120" width="11" height="11" rx="2" fill="#1e2530"><title>2025-08-22: 0 contributions</title></rect>
<rect x="102" y="134" width="11" height="11" rx="2" fill="#1e2530"><title>2025-08-23: 0 contributions</title></rect>
<rect x="116" y="50" width="11" height="11" rx="2" fill="#1e2530"><title>2025-08-24: 0 contributions</title></rect>
<rect x="116" y="64" width="11" height="11" rx="2" fill="#1e2530"><title>2025-08-25: 0 contributions</title></rect>
<rect x="116" y="78" width="11" height="11" rx="2" fill="#1e2530"><title>2025-08-26: 0 contributions</title></rect>
<rect x="116" y="92" width="11" height="11" rx="2" fill="#1e2530"><title>2025-08-27: 0 contributions</title></rect>
<rect x="116" y="106" width="11" height="11" rx="2" fill="#1e2530"><title>2025-08-28: 0 contributions</title></rect>
<rect x="116" y="120" width="11" height="11" rx="2" fill="#1e2530"><title>2025-08-29: 0 contributions</title></rect>
<rect x="116" y="134" width="11" height="11" rx="2" fill="#1e2530"><title>2025-08-30: 0 contributions</title></rect>
<rect x="130" y="50" width="11" height="11" rx="2" fill="#1e2530"><title>2025-08-31: 0 contributions</title></rect>
<rect x="130" y="64" width="11" height="11" rx="2" fill="#1e2530"><title>2025-09-01: 0 contributions</title></rect>
<rect x="130" y="78" width="11" height="11" rx="2" fill="#1e2530"><title>2025-09-02: 0 contributions</title></rect>
<rect x="130" y="92" width="11" height="11" rx="2" fill="#1e2530"><title>2025-09-03: 0 contributions</title></rect>
<rect x="130" y="106" width="11" height="11" rx="2" fill="#1e2530"><title>2025-09-04: 0 contributions</title></rect>
<rect x="130" y="120" width="11" height="11" rx="2" fill="#1e2530"><title>2025-09-05: 0 contributions</title></rect>
<rect x="130" y="134" width="11" height="11" rx="2" fill="#1e2530"><title>2025-09-06: 0 contributions</title></rect>
<rect x="144" y="50" width="11" height="11" rx="2" fill="#1e2530"><title>2025-09-07: 0 contributions</title></rect>
<rect x="144" y="64" width="11" height="11" rx="2" fill="#1e2530"><title>2025-09-08: 0 contributions</title></rect>
<rect x="144" y="78" width="11" height="11" rx="2" fill="#1e2530"><title>2025-09-09: 0 contributions</title></rect>
<rect x="144" y="92" width="11" height="11" rx="2" fill="#1e2530"><title>2025-09-10: 0 contributions</title></rect>
<rect x="144" y="106" width="11" height="11" rx="2" fill="#1e2530"><title>2025-09-11: 0 contributions</title></rect>
<rect x="144" y="120" width="11" height="11" rx="2" fill="#1e2530"><title>2025-09-12: 0 contributions</title></rect>
<rect x="144" y="134" width="11" height="11" rx="2" fill="#1e2530"><title>2025-09-13: 0 contributions</title></rect>
<rect x="158" y="50" width="11" height="11" rx="2" fill="#1e2530"><title>2025-09-14: 0 contributions</title></rect>
<rect x="158" y="64" width="11" height="11" rx="2" fill="#1e2530"><title>2025-09-15: 0 contributions</title></rect>
<rect x="158" y="78" width="11" height="11" rx="2" fill="#1e2530"><title>2025-09-16: 0 contributions</title></rect>
<rect x="158" y="92" width="11" height="11" rx="2" fill="#1e2530"><title>2025-09-17: 0 contributions</title></rect>
<rect x="158" y="106" width="11" height="11" rx="2" fill="#1e2530"><title>2025-09-18: 0 contributions</title></rect>
<rect x="158" y="120" width="11" height="11" rx="2" fill="#1e2530"><title>2025-09-19: 0 contributions</title></rect>
<rect x="158" y="134" width="11" height="11" rx="2" fill="#1e2530"><title>2025-09-20: 0 contributions</title></rect>
<rect x="172" y="50" width="11" height="11" rx="2" fill="#1e2530"><title>2025-09-21: 0 contributions</title></rect>
<rect x="172" y="64" width="11" height="11" rx="2" fill="#1e2530"><title>2025-09-22: 0 contributions</title></rect>
<rect x="172" y="78" width="11" height="11" rx="2" fill="#1e2530"><title>2025-09-23: 0 contributions</title></rect>
<rect x="172" y="92" width="11" height="11" rx="2" fill="#1e2530"><title>2025-09-24: 0 contributions</title></rect>
<rect x="172" y="106" width="11" height="11" rx="2" fill="#1e2530"><title>2025-09-25: 0 contributions</title></rect>
<rect x="172" y="120" width="11" height="11" rx="2" fill="#1e2530"><title>2025-09-26: 0 contributions</title></rect>
<rect x="172" y="134" width="11" height="11" rx="2" fill="#1e2530"><title>2025-09-27: 0 contributions</title></rect>
<rect x="186" y="50" width="11" height="11" rx="2" fill="#1e2530"><title>2025-09-28: 0 contributions</title></rect>
<rect x="186" y="64" width="11" height="11" rx="2" fill="#1e2530"><title>2025-09-29: 0 contributions</title></rect>
<rect x="186" y="78" width="11" height="11" rx="2" fill="#1e2530"><title>2025-09-30: 0 contributions</title></rect>
<rect x="186" y="92" width="11" height="11" rx="2" fill="#1e2530"><title>2025-10-01: 0 contributions</title></rect>
<rect x="186" y="106" width="11" height="11" rx="2" fill="#1e2530"><title>2025-10-02: 0 contributions</title></rect>
<rect x="186" y="120" width="11" height="11" rx="2" fill="#1e2530"><title>2025-10-03: 0 contributions</title></rect>
<rect x="186" y="134" width="11" height="11" rx="2" fill="#1e2530"><title>2025-10-04: 0 contributions</title></rect>
<rect x="200" y="50" width="11" height="11" rx="2" fill="#1e2530"><title>2025-10-05: 0 contributions</title></rect>
<rect x="200" y="64" width="11" height="11" rx="2" fill="#1e2530"><title>2025-10-06: 0 contributions</title></rect>
<rect x="200" y="78" width="11" height="11" rx="2" fill="#1e2530"><title>2025-10-07: 0 contributions</title></rect>
<rect x="200" y="92" width="11" height="11" rx="2" fill="#1e2530"><title>2025-10-08: 0 contributions</title></rect>
<rect x="200" y="106" width="11" height="11" rx="2" fill="#1e2530"><title>2025-10-09: 0 contributions</title></rect>
<rect x="200" y="120" width="11" height="11" rx="2" fill="#1e2530"><title>2025-10-10: 0 contributions</title></rect>
<rect x="200" y="134" width="11" height="11" rx="2" fill="#1e2530"><title>2025-10-11: 0 contributions</title></rect>
<rect x="214" y="50" width="11" height="11" rx="2" fill="#1e2530"><title>2025-10-12: 0 contributions</title></rect>
<rect x="214" y="64" width="11" height="11" rx="2" fill="#1e2530"><title>2025-10-13: 0 contributions</title></rect>
<rect x="214" y="78" width="11" height="11" rx="2" fill="#1e2530"><title>2025-10-14: 0 contributions</title></rect>
<rect x="214" y="92" width="11" height="11" rx="2" fill="#1e2530"><title>2025-10-15: 0 contributions</title></rect>
<rect x="214" y="106" width="11" height="11" rx="2" fill="#1e2530"><title>2025-10-16: 0 contributions</title></rect>
<rect x="214" y="120" width="11" height="11" rx="2" fill="#1e2530"><title>2025-10-17: 0 contributions</title></rect>
<rect x="214" y="134" width="11" height="11" rx="2" fill="#1e2530"><title>2025-10-18: 0 contributions</title></rect>
<rect x="228" y="50" width="11" height="11" rx="2" fill="#1e2530"><title>2025-10-19: 0 contributions</title></rect>
<rect x="228" y="64" width="11" height="11" rx="2" fill="#1e2530"><title>2025-10-20: 0 contributions</title></rect>
<rect x="228" y="78" width="11" height="11" rx="2" fill="#1e2530"><title>2025-10-21: 0 contributions</title></rect>
<rect x="228" y="92" width="11" height="11" rx="2" fill="#1e2530"><title>2025-10-22: 0 contributions</title></rect>
<rect x="228" y="106" width="11" height="11" rx="2" fill="#1e2530"><title>2025-10-23: 0 contributions</title></rect>
<rect x="228" y="120" width="11" height="11" rx="2" fill="#1e2530"><title>2025-10-24: 0 contributions</title></rect>
<rect x="228" y="134" width="11" height="11" rx="2" fill="#1e2530"><title>2025-10-25: 0 contributions</title></rect>
<rect x="242" y="50" width="11" height="11" rx="2" fill="#1e2530"><title>2025-10-26: 0 contributions</title></rect>
<rect x="242" y="64" width="11" height="11" rx="2" fill="#1e2530"><title>2025-10-27: 0 contributions</title></rect>
<rect x="242" y="78" width="11" height="11" rx="2" fill="#1e2530"><title>2025-10-28: 0 contributions</title></rect>
<rect x="242" y="92" width="11" height="11" rx="2" fill="#1e2530"><title>2025-10-29: 0 contributions</title></rect>
<rect x="242" y="106" width="11" height="11" rx="2" fill="#1e2530"><title>2025-10-30: 0 contributions</title></rect>
<rect x="242" y="120" width="11" height="11" rx="2" fill="#1e2530"><title>2025-10-31: 0 contributions</title></rect>
<rect x="242" y="134" width="11" height="11" rx="2" fill="#1e2530"><title>2025-11-01: 0 contributions</title></rect>
<rect x="256" y="50" width="11" height="11" rx="2" fill="#1e2530"><title>2025-11-02: 0 contributions</title></rect>
<rect x="256" y="64" width="11" height="11" rx="2" fill="#1e2530"><title>2025-11-03: 0 contributions</title></rect>
<rect x="256" y="78" width="11" height="11" rx="2" fill="#1e2530"><title>2025-11-04: 0 contributions</title></rect>
<rect x="256" y="92" width="11" height="11" rx="2" fill="#1e2530"><title>2025-11-05: 0 contributions</title></rect>
<rect x="256" y="106" width="11" height="11" rx="2" fill="#1e2530"><title>2025-11-06: 0 contributions</title></rect>
<rect x="256" y="120" width="11" height="11" rx="2" fill="#1e2530"><title>2025-11-07: 0 contributions</title></rect>
<rect x="256" y="134" width="11" height="11" rx="2" fill="#1e2530"><title>2025-11-08: 0 contributions</title></rect>
<rect x="270" y="50" width="11" height="11" rx="2" fill="#1e2530"><title>2025-11-09: 0 contributions</title></rect>
<rect x="270" y="64" width="11" height="11" rx="2" fill="#1e2530"><title>2025-11-10: 0 contributions</title></rect>
<rect x="270" y="78" width="11" height="11" rx="2" fill="#1e2530"><title>2025-11-11: 0 contributions</title></rect>
<rect x="270" y="92" width="11" height="11" rx="2" fill="#1e2530"><title>2025-11-12: 0 contributions</title></rect>
<rect x="270" y="106" width="11" height="11" rx="2" fill="#1e2530"><title>2025-11-13: 0 contributions</title></rect>
<rect x="270" y="120" width="11" height="11" rx="2" fill="#1e2530"><title>2025-11-14: 0 contributions</title></rect>
<rect x="270" y="134" width="11" height="11" rx="2" fill="#1e2530"><title>2025-11-15: 0 contributions</title></rect>
<rect x="284" y="50" width="11" height="11" rx="2" fill="#1e2530"><title>2025-11-16: 0 contributions</title></rect>
<rect x="284" y="64" width="11" height="11" rx="2" fill="#1e2530"><title>2025-11-17: 0 contributions</title></rect>
<rect x="284" y="78" width="11" height="11" rx="2" fill="#1e2530"><title>2025-11-18: 0 contributions</title></rect>
<rect x="284" y="92" width="11" height="11" rx="2" fill="#1e2530"><title>2025-11-19: 0 contributions</title></rect>
<rect x="284" y="106" width="11" height="11" rx="2" fill="#1e2530"><title>2025-11-20: 0 contributions</title></rect>
<rect x="284" y="120" width="11" height="11" rx="2" fill="#1e2530"><title>2025-11-21: 0 contributions</title></rect>
<rect x="284" y="134" width="11" height="11" rx="2" fill="#1e2530"><title>2025-11-22: 0 contributions</title></rect>
<rect x="298" y="50" width="11" height="11" rx="2" fill="#1e2530"><title>2025-11-23: 0 contributions</title></rect>
<rect x="298" y="64" width="11" height="11" rx="2" fill="#1e2530"><title>2025-11-24: 0 contributions</title></rect>
<rect x="298" y="78" width="11" height="11" rx="2" fill="#1e2530"><title>2025-11-25: 0 contributions</title></rect>
<rect x="298" y="92" width="11" height="11" rx="2" fill="#1e2530"><title>2025-11-26: 0 contributions</title></rect>
<rect x="298" y="106" width="11" height="11" rx="2" fill="#1e2530"><title>2025-11-27: 0 contributions</title></rect>
<rect x="298" y="120" width="11" height="11" rx="2" fill="#1e2530"><title>2025-11-28: 0 contributions</title></rect>
<rect x="298" y="134" width="11" height="11" rx="2" fill="#1e2530"><title>2025-11-29: 0 contributions</title></rect>
<rect x="312" y="50" width="11" height="11" rx="2" fill="#1e2530"><title>2025-11-30: 0 contributions</title></rect>
<rect x="312" y="64" width="11" height="11" rx="2" fill="#1e2530"><title>2025-12-01: 0 contributions</title></rect>
<rect x="312" y="78" width="11" height="11" rx="2" fill="#1e2530"><title>2025-12-02: 0 contributions</title></rect>
<rect x="312" y="92" width="11" height="11" rx="2" fill="#1e2530"><title>2025-12-03: 0 contributions</title></rect>
<rect x="312" y="106" width="11" height="11" rx="2" fill="#1e2530"><title>2025-12-04: 0 contributions</title></rect>
<rect x="312" y="120" width="11" height="11" rx="2" fill="#1e2530"><title>2025-12-05: 0 contributions</title></rect>
<rect x="312" y="134" width="11" height="11" rx="2" fill="#1e2530"><title>2025-12-06: 0 contributions</title></rect>
<rect x="326" y="50" width="11" height="11" rx="2" fill="#0e4429"><title>2025-12-07: 12 contributions</title></rect>
<rect x="326" y="64" width="11" height="11" rx="2" fill="#1e2530"><title>2025-12-08: 0 contributions</title></rect>
<rect x="326" y="78" width="11" height="11" rx="2" fill="#1e2530"><title>2025-12-09: 0 contributions</title></rect>
<rect x="326" y="92" width="11" height="11" rx="2" fill="#1e2530"><title>2025-12-10: 0 contributions</title></rect>
<rect x="326" y="106" width="11" height="11" rx="2" fill="#1e2530"><title>2025-12-11: 0 contributions</title></rect>
<rect x="326" y="120" width="11" height="11" rx="2" fill="#1e2530"><title>2025-12-12: 0 contributions</title></rect>
<rect x="326" y="134" width="11" height="11" rx="2" fill="#1e2530"><title>2025-12-13: 0 contributions</title></rect>
<rect x="340" y="50" width="11" height="11" rx="2" fill="#1e2530"><title>2025-12-14: 0 contributions</title></rect>
<rect x="340" y="64" width="11" height="11" rx="2" fill="#1e2530"><title>2025-12-15: 0 contributions</title></rect>
<rect x="340" y="78" width="11" height="11" rx="2" fill="#1e2530"><title>2025-12-16: 0 contributions</title></rect>
<rect x="340" y="92" width="11" height="11" rx="2" fill="#1e2530"><title>2025-12-17: 0 contributions</title></rect>
<rect x="340" y="106" width="11" height="11" rx="2" fill="#1e2530"><title>2025-12-18: 0 contributions</title></rect>
<rect x="340" y="120" width="11" height="11" rx="2" fill="#1e2530"><title>2025-12-19: 0 contributions</title></rect>
<rect x="340" y="134" width="11" height="11" rx="2" fill="#1e2530"><title>2025-12-20: 0 contributions</title></rect>
<rect x="354" y="50" width="11" height="11" rx="2" fill="#1e2530"><title>2025-12-21: 0 contributions</title></rect>
<rect x="354" y="64" width="11" height="11" rx="2" fill="#1e2530"><title>2025-12-22: 0 contributions</title></rect>
<rect x="354" y="78" width="11" height="11" rx="2" fill="#1e2530"><title>2025-12-23: 0 contributions</title></rect>
<rect x="354" y="92" width="11" height="11" rx="2" fill="#1e2530"><title>2025-12-24: 0 contributions</title></rect>
<rect x="354" y="106" width="11" height="11" rx="2" fill="#1e2530"><title>2025-12-25: 0 contributions</title></rect>
<rect x="354" y="120" width="11" height="11" rx="2" fill="#1e2530"><title>2025-12-26: 0 contributions</title></rect>
<rect x="354" y="134" width="11" height="11" rx="2" fill="#1e2530"><title>2025-12-27: 0 contributions</title></rect>
<rect x="368" y="50" width="11" height="11" rx="2" fill="#1e2530"><title>2025-12-28: 0 contributions</title></rect>
<rect x="368" y="64" width="11" height="11" rx="2" fill="#1e2530"><title>2025-12-29: 0 contributions</title></rect>
<rect x="368" y="78" width="11" height="11" rx="2" fill="#1e2530"><title>2025-12-30: 0 contributions</title></rect>
<rect x="368" y="92" width="11" height="11" rx="2" fill="#1e2530"><title>2025-12-31: 0 contributions</title></rect>
<rect x="368" y="106" width="11" height="11" rx="2" fill="#1e2530"><title>2026-01-01: 0 contributions</title></rect>
<rect x="368" y="120" width="11" height="11" rx="2" fill="#1e2530"><title>2026-01-02: 0 contributions</title></rect>
<rect x="368" y="134" width="11" height="11" rx="2" fill="#1e2530"><title>2026-01-03: 0 contributions</title></rect>
<rect x="382" y="50" width="11" height="11" rx="2" fill="#1e2530"><title>2026-01-04: 0 contributions</title></rect>
<rect x="382" y="64" width="11" height="11" rx="2" fill="#1e2530"><title>2026-01-05: 0 contributions</title></rect>
<rect x="382" y="78" width="11" height="11" rx="2" fill="#1e2530"><title>2026-01-06: 0 contributions</title></rect>
<rect x="382" y="92" width="11" height="11" rx="2" fill="#1e2530"><title>2026-01-07: 0 contributions</title></rect>
<rect x="382" y="106" width="11" height="11" rx="2" fill="#1e2530"><title>2026-01-08: 0 contributions</title></rect>
<rect x="382" y="120" width="11" height="11" rx="2" fill="#1e2530"><title>2026-01-09: 0 contributions</title></rect>
<rect x="382" y="134" width="11" height="11" rx="2" fill="#1e2530"><title>2026-01-10: 0 contributions</title></rect>
<rect x="396" y="50" width="11" height="11" rx="2" fill="#1e2530"><title>2026-01-11: 0 contributions</title></rect>
<rect x="396" y="64" width="11" height="11" rx="2" fill="#1e2530"><title>2026-01-12: 0 contributions</title></rect>
<rect x="396" y="78" width="11" height="11" rx="2" fill="#1e2530"><title>2026-01-13: 0 contributions</title></rect>
<rect x="396" y="92" width="11" height="11" rx="2" fill="#1e2530"><title>2026-01-14: 0 contributions</title></rect>
<rect x="396" y="106" width="11" height="11" rx="2" fill="#1e2530"><title>2026-01-15: 0 contributions</title></rect>
<rect x="396" y="120" width="11" height="11" rx="2" fill="#1e2530"><title>2026-01-16: 0 contributions</title></rect>
<rect x="396" y="134" width="11" height="11" rx="2" fill="#1e2530"><title>2026-01-17: 0 contributions</title></rect>
<rect x="410" y="50" width="11" height="11" rx="2" fill="#1e2530"><title>2026-01-18: 0 contributions</title></rect>
<rect x="410" y="64" width="11" height="11" rx="2" fill="#1e2530"><title>2026-01-19: 0 contributions</title></rect>
<rect x="410" y="78" width="11" height="11" rx="2" fill="#1e2530"><title>2026-01-20: 0 contributions</title></rect>
<rect x="410" y="92" width="11" height="11" rx="2" fill="#1e2530"><title>2026-01-21: 0 contributions</title></rect>
<rect x="410" y="106" width="11" height="11" rx="2" fill="#1e2530"><title>2026-01-22: 0 contributions</title></rect>
<rect x="410" y="120" width="11" height="11" rx="2" fill="#1e2530"><title>2026-01-23: 0 contributions</title></rect>
<rect x="410" y="134" width="11" height="11" rx="2" fill="#1e2530"><title>2026-01-24: 0 contributions</title></rect>
<rect x="424" y="50" width="11" height="11" rx="2" fill="#1e2530"><title>2026-01-25: 0 contributions</title></rect>
<rect x="424" y="64" width="11" height="11" rx="2" fill="#1e2530"><title>2026-01-26: 0 contributions</title></rect>
<rect x="424" y="78" width="11" height="11" rx="2" fill="#1e2530"><title>2026-01-27: 0 contributions</title></rect>
<rect x="424" y="92" width="11" height="11" rx="2" fill="#1e2530"><title>2026-01-28: 0 contributions</title></rect>
<rect x="424" y="106" width="11" height="11" rx="2" fill="#1e2530"><title>2026-01-29: 0 contributions</title></rect>
<rect x="424" y="120" width="11" height="11" rx="2" fill="#1e2530"><title>2026-01-30: 0 contributions</title></rect>
<rect x="424" y="134" width="11" height="11" rx="2" fill="#1e2530"><title>2026-01-31: 0 contributions</title></rect>
<rect x="438" y="50" width="11" height="11" rx="2" fill="#1e2530"><title>2026-02-01: 0 contributions</title></rect>
<rect x="438" y="64" width="11" height="11" rx="2" fill="#1e2530"><title>2026-02-02: 0 contributions</title></rect>
<rect x="438" y="78" width="11" height="11" rx="2" fill="#1e2530"><title>2026-02-03: 0 contributions</title></rect>
<rect x="438" y="92" width="11" height="11" rx="2" fill="#1e2530"><title>2026-02-04: 0 contributions</title></rect>
<rect x="438" y="106" width="11" height="11" rx="2" fill="#1e2530"><title>2026-02-05: 0 contributions</title></rect>
<rect x="438" y="120" width="11" height="11" rx="2" fill="#1e2530"><title>2026-02-06: 0 contributions</title></rect>
<rect x="438" y="134" width="11" height="11" rx="2" fill="#1e2530"><title>2026-02-07: 0 contributions</title></rect>
<rect x="452" y="50" width="11" height="11" rx="2" fill="#1e2530"><title>2026-02-08: 0 contributions</title></rect>
<rect x="452" y="64" width="11" height="11" rx="2" fill="#1e2530"><title>2026-02-09: 0 contributions</title></rect>
<rect x="452" y="78" width="11" height="11" rx="2" fill="#1e2530"><title>2026-02-10: 0 contributions</title></rect>
<rect x="452" y="92" width="11" height="11" rx="2" fill="#1e2530"><title>2026-02-11: 0 contributions</title></rect>
<rect x="452" y="106" width="11" height="11" rx="2" fill="#1e2530"><title>2026-02-12: 0 contributions</title></rect>
<rect x="452" y="120" width="11" height="11" rx="2" fill="#1e2530"><title>2026-02-13: 0 contributions</title></rect>
<rect x="452" y="134" width="11" height="11" rx="2" fill="#1e2530"><title>2026-02-14: 0 contributions</title></rect>
<rect x="466" y="50" width="11" height="11" rx="2" fill="#1e2530"><title>2026-02-15: 0 contributions</title></rect>
<rect x="466" y="64" width="11" height="11" rx="2" fill="#1e2530"><title>2026-02-16: 0 contributions</title></rect>
<rect x="466" y="78" width="11" height="11" rx="2" fill="#1e2530"><title>2026-02-17: 0 contributions</title></rect>
<rect x="466" y="92" width="11" height="11" rx="2" fill="#1e2530"><title>2026-02-18: 0 contributions</title></rect>
<rect x="466" y="106" width="11" height="11" rx="2" fill="#1e2530"><title>2026-02-19: 0 contributions</title></rect>
<rect x="466" y="120" width="11" height="11" rx="2" fill="#1e2530"><title>2026-02-20: 0 contributions</title></rect>
<rect x="466" y="134" width="11" height="11" rx="2" fill="#1e2530"><title>2026-02-21: 0 contributions</title></rect>
<rect x="480" y="50" width="11" height="11" rx="2" fill="#1e2530"><title>2026-02-22: 0 contributions</title></rect>
<rect x="480" y="64" width="11" height="11" rx="2" fill="#1e2530"><title>2026-02-23: 0 contributions</title></rect>
<rect x="480" y="78" width="11" height="11" rx="2" fill="#1e2530"><title>2026-02-24: 0 contributions</title></rect>
<rect x="480" y="92" width="11" height="11" rx="2" fill="#1e2530"><title>2026-02-25: 0 contributions</title></rect>
<rect x="480" y="106" width="11" height="11" rx="2" fill="#1e2530"><title>2026-02-26: 0 contributions</title></rect>
<rect x="480" y="120" width="11" height="11" rx="2" fill="#1e2530"><title>2026-02-27: 0 contributions</title></rect>
<rect x="480" y="134" width="11" height="11" rx="2" fill="#1e2530"><title>2026-02-28: 0 contributions</title></rect>
<rect x="494" y="50" width="11" height="11" rx="2" fill="#1e2530"><title>2026-03-01: 0 contributions</title></rect>
<rect x="494" y="64" width="11" height="11" rx="2" fill="#1e2530"><title>2026-03-02: 0 contributions</title></rect>
<rect x="494" y="78" width="11" height="11" rx="2" fill="#1e2530"><title>2026-03-03: 0 contributions</title></rect>
<rect x="494" y="92" width="11" height="11" rx="2" fill="#1e2530"><title>2026-03-04: 0 contributions</title></rect>
<rect x="494" y="106" width="11" height="11" rx="2" fill="#1e2530"><title>2026-03-05: 0 contributions</title></rect>
<rect x="494" y="120" width="11" height="11" rx="2" fill="#1e2530"><title>2026-03-06: 0 contributions</title></rect>
<rect x="494" y="134" width="11" height="11" rx="2" fill="#1e2530"><title>2026-03-07: 0 contributions</title></rect>
<rect x="508" y="50" width="11" height="11" rx="2" fill="#1e2530"><title>2026-03-08: 0 contributions</title></rect>
<rect x="508" y="64" width="11" height="11" rx="2" fill="#1e2530"><title>2026-03-09: 0 contributions</title></rect>
<rect x="508" y="78" width="11" height="11" rx="2" fill="#1e2530"><title>2026-03-10: 0 contributions</title></rect>
<rect x="508" y="92" width="11" height="11" rx="2" fill="#1e2530"><title>2026-03-11: 0 contributions</title></rect>
<rect x="508" y="106" width="11" height="11" rx="2" fill="#1e2530"><title>2026-03-12: 0 contributions</title></rect>
<rect x="508" y="120" width="11" height="11" rx="2" fill="#1e2530"><title>2026-03-13: 0 contributions</title></rect>
<rect x="508" y="134" width="11" height="11" rx="2" fill="#1e2530"><title>2026-03-14: 0 contributions</title></rect>
<rect x="522" y="50" width="11" height="11" rx="2" fill="#1e2530"><title>2026-03-15: 0 contributions</title></rect>
<rect x="522" y="64" width="11" height="11" rx="2" fill="#1e2530"><title>2026-03-16: 0 contributions</title></rect>
<rect x="522" y="78" width="11" height="11" rx="2" fill="#1e2530"><title>2026-03-17: 0 contributions</title></rect>
<rect x="522" y="92" width="11" height="11" rx="2" fill="#1e2530"><title>2026-03-18: 0 contributions</title></rect>
<rect x="522" y="106" width="11" height="11" rx="2" fill="#1e2530"><title>2026-03-19: 0 contributions</title></rect>
<rect x="522" y="120" width="11" height="11" rx="2" fill="#1e2530"><title>2026-03-20: 0 contributions</title></rect>
<rect x="522" y="134" width="11" height="11" rx="2" fill="#1e2530"><title>2026-03-21: 0 contributions</title></rect>
<rect x="536" y="50" width="11" height="11" rx="2" fill="#1e2530"><title>2026-03-22: 0 contributions</title></rect>
<rect x="536" y="64" width="11" height="11" rx="2" fill="#1e2530"><title>2026-03-23: 0 contributions</title></rect>
<rect x="536" y="78" width="11" height="11" rx="2" fill="#1e2530"><title>2026-03-24: 0 contributions</title></rect>
<rect x="536" y="92" width="11" height="11" rx="2" fill="#1e2530"><title>2026-03-25: 0 contributions</title></rect>
<rect x="536" y="106" width="11" height="11" rx="2" fill="#1e2530"><title>2026-03-26: 0 contributions</title></rect>
<rect x="536" y="120" width="11" height="11" rx="2" fill="#1e2530"><title>2026-03-27: 0 contributions</title></rect>
<rect x="536" y="134" width="11" height="11" rx="2" fill="#1e2530"><title>2026-03-28: 0 contributions</title></rect>
<rect x="550" y="50" width="11" height="11" rx="2" fill="#1e2530"><title>2026-03-29: 0 contributions</title></rect>
<rect x="550" y="64" width="11" height="11" rx="2" fill="#1e2530"><title>2026-03-30: 0 contributions</title></rect>
<rect x="550" y="78" width="11" height="11" rx="2" fill="#1e2530"><title>2026-03-31: 0 contributions</title></rect>
<rect x="550" y="92" width="11" height="11" rx="2" fill="#1e2530"><title>2026-04-01: 0 contributions</title></rect>
<rect x="550" y="106" width="11" height="11" rx="2" fill="#1e2530"><title>2026-04-02: 0 contributions</title></rect>
<rect x="550" y="120" width="11" height="11" rx="2" fill="#1e2530"><title>2026-04-03: 0 contributions</title></rect>
<rect x="550" y="134" width="11" height="11" rx="2" fill="#1e2530"><title>2026-04-04: 0 contributions</title></rect>
<rect x="564" y="50" width="11" height="11" rx="2" fill="#1e2530"><title>2026-04-05: 0 contributions</title></rect>
<rect x="564" y="64" width="11" height="11" rx="2" fill="#1e2530"><title>2026-04-06: 0 contributions</title></rect>
<rect x="564" y="78" width="11" height="11" rx="2" fill="#1e2530"><title>2026-04-07: 0 contributions</title></rect>
<rect x="564" y="92" width="11" height="11" rx="2" fill="#1e2530"><title>2026-04-08: 0 contributions</title></rect>
<rect x="564" y="106" width="11" height="11" rx="2" fill="#0e4429"><title>2026-04-09: 9 contributions</title></rect>
<rect x="564" y="120" width="11" height="11" rx="2" fill="#1e2530"><title>2026-04-10: 0 contributions</title></rect>
<rect x="564" y="134" width="11" height="11" rx="2" fill="#1e2530"><title>2026-04-11: 0 contributions</title></rect>
<rect x="578" y="50" width="11" height="11" rx="2" fill="#1e2530"><title>2026-04-12: 0 contributions</title></rect>
<rect x="578" y="64" width="11" height="11" rx="2" fill="#1e2530"><title>2026-04-13: 0 contributions</title></rect>
<rect x="578" y="78" width="11" height="11" rx="2" fill="#1e2530"><title>2026-04-14: 0 contributions</title></rect>
<rect x="578" y="92" width="11" height="11" rx="2" fill="#1e2530"><title>2026-04-15: 0 contributions</title></rect>
<rect x="578" y="106" width="11" height="11" rx="2" fill="#1e2530"><title>2026-04-16: 0 contributions</title></rect>
<rect x="578" y="120" width="11" height="11" rx="2" fill="#1e2530"><title>2026-04-17: 0 contributions</title></rect>
<rect x="578" y="134" width="11" height="11" rx="2" fill="#1e2530"><title>2026-04-18: 0 contributions</title></rect>
<rect x="592" y="50" width="11" height="11" rx="2" fill="#1e2530"><title>2026-04-19: 0 contributions</title></rect>
<rect x="592" y="64" width="11" height="11" rx="2" fill="#1e2530"><title>2026-04-20: 0 contributions</title></rect>
<rect x="592" y="78" width="11" height="11" rx="2" fill="#1e2530"><title>2026-04-21: 0 contributions</title></rect>
<rect x="592" y="92" width="11" height="11" rx="2" fill="#1e2530"><title>2026-04-22: 0 contributions</title></rect>
<rect x="592" y="106" width="11" height="11" rx="2" fill="#1e2530"><title>2026-04-23: 0 contributions</title></rect>
<rect x="592" y="120" width="11" height="11" rx="2" fill="#1e2530"><title>2026-04-24: 0 contributions</title></rect>
<rect x="592" y="134" width="11" height="11" rx="2" fill="#1e2530"><title>2026-04-25: 0 contributions</title></rect>
<rect x="606" y="50" width="11" height="11" rx="2" fill="#26a641"><title>2026-04-26: 54 contributions</title></rect>
<rect x="606" y="64" width="11" height="11" rx="2" fill="#0e4429"><title>2026-04-27: 1 contributions</title></rect>
<rect x="606" y="78" width="11" height="11" rx="2" fill="#26a641"><title>2026-04-28: 45 contributions</title></rect>
<rect x="606" y="92" width="11" height="11" rx="2" fill="#39d353"><title>2026-04-29: 66 contributions</title></rect>
<rect x="606" y="106" width="11" height="11" rx="2" fill="#26a641"><title>2026-04-30: 49 contributions</title></rect>
<rect x="606" y="120" width="11" height="11" rx="2" fill="#006d32"><title>2026-05-01: 24 contributions</title></rect>
<rect x="606" y="134" width="11" height="11" rx="2" fill="#0e4429"><title>2026-05-02: 18 contributions</title></rect>
<rect x="620" y="50" width="11" height="11" rx="2" fill="#26a641"><title>2026-05-03: 56 contributions</title></rect>
<rect x="620" y="64" width="11" height="11" rx="2" fill="#006d32"><title>2026-05-04: 28 contributions</title></rect>
<rect x="620" y="78" width="11" height="11" rx="2" fill="#0e4429"><title>2026-05-05: 16 contributions</title></rect>
<rect x="620" y="92" width="11" height="11" rx="2" fill="#1e2530"><title>2026-05-06: 0 contributions</title></rect>
<rect x="620" y="106" width="11" height="11" rx="2" fill="#0e4429"><title>2026-05-07: 11 contributions</title></rect>
<rect x="620" y="120" width="11" height="11" rx="2" fill="#1e2530"><title>2026-05-08: 0 contributions</title></rect>
<rect x="620" y="134" width="11" height="11" rx="2" fill="#1e2530"><title>2026-05-09: 0 contributions</title></rect>
<rect x="634" y="50" width="11" height="11" rx="2" fill="#1e2530"><title>2026-05-10: 0 contributions</title></rect>
<rect x="634" y="64" width="11" height="11" rx="2" fill="#1e2530"><title>2026-05-11: 0 contributions</title></rect>
<rect x="634" y="78" width="11" height="11" rx="2" fill="#1e2530"><title>2026-05-12: 0 contributions</title></rect>
<rect x="634" y="92" width="11" height="11" rx="2" fill="#006d32"><title>2026-05-13: 20 contributions</title></rect>
<rect x="634" y="106" width="11" height="11" rx="2" fill="#1e2530"><title>2026-05-14: 0 contributions</title></rect>
<rect x="634" y="120" width="11" height="11" rx="2" fill="#0e4429"><title>2026-05-15: 2 contributions</title></rect>
<rect x="634" y="134" width="11" height="11" rx="2" fill="#0e4429"><title>2026-05-16: 3 contributions</title></rect>
<rect x="648" y="50" width="11" height="11" rx="2" fill="#1e2530"><title>2026-05-17: 0 contributions</title></rect>
<rect x="648" y="64" width="11" height="11" rx="2" fill="#1e2530"><title>2026-05-18: 0 contributions</title></rect>
<rect x="648" y="78" width="11" height="11" rx="2" fill="#1e2530"><title>2026-05-19: 0 contributions</title></rect>
<rect x="648" y="92" width="11" height="11" rx="2" fill="#1e2530"><title>2026-05-20: 0 contributions</title></rect>
<rect x="648" y="106" width="11" height="11" rx="2" fill="#1e2530"><title>2026-05-21: 0 contributions</title></rect>
<rect x="648" y="120" width="11" height="11" rx="2" fill="#1e2530"><title>2026-05-22: 0 contributions</title></rect>
<rect x="648" y="134" width="11" height="11" rx="2" fill="#1e2530"><title>2026-05-23: 0 contributions</title></rect>
<rect x="662" y="50" width="11" height="11" rx="2" fill="#0e4429"><title>2026-05-24: 10 contributions</title></rect>
<rect x="662" y="64" width="11" height="11" rx="2" fill="#0e4429"><title>2026-05-25: 9 contributions</title></rect>
<rect x="662" y="78" width="11" height="11" rx="2" fill="#1e2530"><title>2026-05-26: 0 contributions</title></rect>
<rect x="662" y="92" width="11" height="11" rx="2" fill="#1e2530"><title>2026-05-27: 0 contributions</title></rect>
<rect x="662" y="106" width="11" height="11" rx="2" fill="#1e2530"><title>2026-05-28: 0 contributions</title></rect>
<rect x="662" y="120" width="11" height="11" rx="2" fill="#1e2530"><title>2026-05-29: 0 contributions</title></rect>
<rect x="662" y="134" width="11" height="11" rx="2" fill="#1e2530"><title>2026-05-30: 0 contributions</title></rect>
<rect x="676" y="50" width="11" height="11" rx="2" fill="#1e2530"><title>2026-05-31: 0 contributions</title></rect>
<rect x="676" y="64" width="11" height="11" rx="2" fill="#1e2530"><title>2026-06-01: 0 contributions</title></rect>
<rect x="676" y="78" width="11" height="11" rx="2" fill="#1e2530"><title>2026-06-02: 0 contributions</title></rect>
<rect x="676" y="92" width="11" height="11" rx="2" fill="#1e2530"><title>2026-06-03: 0 contributions</title></rect>
<rect x="676" y="106" width="11" height="11" rx="2" fill="#0e4429"><title>2026-06-04: 7 contributions</title></rect>
<rect x="676" y="120" width="11" height="11" rx="2" fill="#1e2530"><title>2026-06-05: 0 contributions</title></rect>
<rect x="676" y="134" width="11" height="11" rx="2" fill="#1e2530"><title>2026-06-06: 0 contributions</title></rect>
<rect x="690" y="50" width="11" height="11" rx="2" fill="#1e2530"><title>2026-06-07: 0 contributions</title></rect>
<rect x="690" y="64" width="11" height="11" rx="2" fill="#1e2530"><title>2026-06-08: 0 contributions</title></rect>
<rect x="690" y="78" width="11" height="11" rx="2" fill="#1e2530"><title>2026-06-09: 0 contributions</title></rect>
<rect x="690" y="92" width="11" height="11" rx="2" fill="#1e2530"><title>2026-06-10: 0 contributions</title></rect>
<rect x="690" y="106" width="11" height="11" rx="2" fill="#006d32"><title>2026-06-11: 21 contributions</title></rect>
<rect x="690" y="120" width="11" height="11" rx="2" fill="#006d32"><title>2026-06-12: 26 contributions</title></rect>
<rect x="690" y="134" width="11" height="11" rx="2" fill="#006d32"><title>2026-06-13: 22 contributions</title></rect>
<rect x="704" y="50" width="11" height="11" rx="2" fill="#1e2530"><title>2026-06-14: 0 contributions</title></rect>
<rect x="704" y="64" width="11" height="11" rx="2" fill="#1e2530"><title>2026-06-15: 0 contributions</title></rect>
<rect x="704" y="78" width="11" height="11" rx="2" fill="#1e2530"><title>2026-06-16: 0 contributions</title></rect>
<rect x="704" y="92" width="11" height="11" rx="2" fill="#0e4429"><title>2026-06-17: 18 contributions</title></rect>
<rect x="704" y="106" width="11" height="11" rx="2" fill="#006d32"><title>2026-06-18: 22 contributions</title></rect>
<rect x="704" y="120" width="11" height="11" rx="2" fill="#1e2530"><title>2026-06-19: 0 contributions</title></rect>
<rect x="704" y="134" width="11" height="11" rx="2" fill="#39d353"><title>2026-06-20: 75 contributions</title></rect>
<rect x="718" y="50" width="11" height="11" rx="2" fill="#1e2530"><title>2026-06-21: 0 contributions</title></rect>
<rect x="718" y="64" width="11" height="11" rx="2" fill="#006d32"><title>2026-06-22: 28 contributions</title></rect>
<rect x="718" y="78" width="11" height="11" rx="2" fill="#26a641"><title>2026-06-23: 41 contributions</title></rect>
<rect x="718" y="92" width="11" height="11" rx="2" fill="#006d32"><title>2026-06-24: 19 contributions</title></rect>
<rect x="718" y="106" width="11" height="11" rx="2" fill="#1e2530"><title>2026-06-25: 0 contributions</title></rect>
<rect x="718" y="120" width="11" height="11" rx="2" fill="#1e2530"><title>2026-06-26: 0 contributions</title></rect>
<rect x="718" y="134" width="11" height="11" rx="2" fill="#26a641"><title>2026-06-27: 43 contributions</title></rect>
<rect x="732" y="50" width="11" height="11" rx="2" fill="#26a641"><title>2026-06-28: 47 contributions</title></rect>
<rect x="732" y="64" width="11" height="11" rx="2" fill="#1e2530"><title>2026-06-29: 0 contributions</title></rect>
<rect x="732" y="78" width="11" height="11" rx="2" fill="#0e4429"><title>2026-06-30: 2 contributions</title></rect>
<rect x="732" y="92" width="11" height="11" rx="2" fill="#006d32"><title>2026-07-01: 28 contributions</title></rect>
<rect x="732" y="106" width="11" height="11" rx="2" fill="#006d32"><title>2026-07-02: 22 contributions</title></rect>
<rect x="732" y="120" width="11" height="11" rx="2" fill="#006d32"><title>2026-07-03: 20 contributions</title></rect>
<rect x="732" y="134" width="11" height="11" rx="2" fill="#39d353"><title>2026-07-04: 61 contributions</title></rect>
<rect x="746" y="50" width="11" height="11" rx="2" fill="#006d32"><title>2026-07-05: 21 contributions</title></rect>
<rect x="746" y="64" width="11" height="11" rx="2" fill="#26a641"><title>2026-07-06: 56 contributions</title></rect>
<rect x="746" y="78" width="11" height="11" rx="2" fill="#0e4429"><title>2026-07-07: 15 contributions</title></rect>
<rect x="746" y="92" width="11" height="11" rx="2" fill="#0e4429"><title>2026-07-08: 10 contributions</title></rect>
<rect x="746" y="106" width="11" height="11" rx="2" fill="#0e4429"><title>2026-07-09: 2 contributions</title></rect>
<rect x="746" y="120" width="11" height="11" rx="2" fill="#0e4429"><title>2026-07-10: 18 contributions</title></rect>
<rect x="746" y="134" width="11" height="11" rx="2" fill="#39d353"><title>2026-07-11: 57 contributions</title></rect>
<rect x="760" y="50" width="11" height="11" rx="2" fill="#006d32"><title>2026-07-12: 26 contributions</title></rect>
<rect x="760" y="64" width="11" height="11" rx="2" fill="#006d32"><title>2026-07-13: 20 contributions</title></rect>
<rect x="760" y="78" width="11" height="11" rx="2" fill="#006d32"><title>2026-07-14: 20 contributions</title></rect>
<rect x="760" y="92" width="11" height="11" rx="2" fill="#006d32"><title>2026-07-15: 30 contributions</title></rect>
<rect x="760" y="106" width="11" height="11" rx="2" fill="#0e4429"><title>2026-07-16: 18 contributions</title></rect>
<rect x="760" y="120" width="11" height="11" rx="2" fill="#006d32"><title>2026-07-17: 35 contributions</title></rect>
<rect x="760" y="134" width="11" height="11" rx="2" fill="#006d32"><title>2026-07-18: 30 contributions</title></rect>
<rect x="774" y="50" width="11" height="11" rx="2" fill="#26a641"><title>2026-07-19: 45 contributions</title></rect>
<rect x="774" y="64" width="11" height="11" rx="2" fill="#0e4429"><title>2026-07-20: 12 contributions</title></rect>
<rect x="774" y="78" width="11" height="11" rx="2" fill="#0e4429"><title>2026-07-21: 15 contributions</title></rect>
<rect x="774" y="92" width="11" height="11" rx="2" fill="#1e2530"><title>2026-07-22: 0 contributions</title></rect>
<rect x="774" y="106" width="11" height="11" rx="2" fill="#1e2530"><title>2026-07-23: 0 contributions</title></rect>


  <text x="46" y="182" class="stat-num">1,365</text>
  <text x="89.5" y="182" class="stat-txt"> contributions in the last year</text>

  <text x="46" y="202" class="dim">current streak </text>
  <text x="154" y="202" class="stat-num">0 days</text>
  <text x="203.2" y="202" class="dim"> · longest </text>
  <text x="275.2" y="202" class="stat-num">22 days</text>

  <text x="788" y="182" text-anchor="end" class="dim">07-20-2025 &#8594; 07-23-2026</text>
  <text x="788" y="202" text-anchor="end" class="dim">best day <tspan class="stat-num">75</tspan> on 06-20-2026</text>
</svg>