<svg viewBox="0 0 804 234" xmlns="http://www.w3.org/2000/svg" font-family="'Fira Code','Consolas',monospace">
  <style>
    .bg { fill: #0d1117; }
    .frame { fill: none; stroke: #2dd4bf33; stroke-width: 1.5; rx: 14; }
    .titlebar { fill: #131a22; }
    .title { fill: #8b949e; font-size: 11px; }
    .label { fill: #6e7681; font-size: 9px; }
    .stat-num { fill: #2dd4bf; font-weight: 700; font-size: 12px; }
    .stat-txt { fill: #c9d1d9; font-size: 12px; }
    .dim { fill: #8b949e; font-size: 11px; }
    .dot { r: 5; }
  </style>

  <rect class="bg" width="804" height="234" rx="14"/>
  <rect class="frame" x="0.75" y="0.75" width="802.5" height="232.5" rx="14"/>

  <rect class="titlebar" width="804" height="28" rx="14"/>
  <rect x="0" y="14" width="804" height="14" fill="#131a22"/>
  <circle class="dot" cx="18" cy="14" fill="#ff5f57"/>
  <circle class="dot" cx="34" cy="14" fill="#febc2e"/>
  <circle class="dot" cx="50" cy="14" fill="#28c840"/>
  <text x="402" y="18" text-anchor="middle" class="title">RanaZaid26194@github: ~/contributions --graph</text>

  <text x="42" y="34" class="label">Jul</text>
<text x="84" y="34" class="label">Aug</text>
<text x="154" y="34" class="label">Sep</text>
<text x="210" y="34" class="label">Oct</text>
<text x="266" y="34" class="label">Nov</text>
<text x="336" y="34" class="label">Dec</text>
<text x="392" y="34" class="label">Jan</text>
<text x="448" y="34" class="label">Feb</text>
<text x="504" y="34" class="label">Mar</text>
<text x="574" y="34" class="label">Apr</text>
<text x="630" y="34" class="label">May</text>
<text x="700" y="34" class="label">Jun</text>
<text x="756" y="34" class="label">Jul</text>

  <text x="4" y="69" class="label">Mon</text>
<text x="4" y="97" class="label">Wed</text>
<text x="4" y="125" class="label">Fri</text>
  <rect x="42" y="46" width="11" height="11" rx="2" fill="#1e2530"><title>2025-07-13: 0 contributions</title></rect>
<rect x="42" y="60" width="11" height="11" rx="2" fill="#1e2530"><title>2025-07-14: 0 contributions</title></rect>
<rect x="42" y="74" width="11" height="11" rx="2" fill="#1e2530"><title>2025-07-15: 0 contributions</title></rect>
<rect x="42" y="88" width="11" height="11" rx="2" fill="#1e2530"><title>2025-07-16: 0 contributions</title></rect>
<rect x="42" y="102" width="11" height="11" rx="2" fill="#1e2530"><title>2025-07-17: 0 contributions</title></rect>
<rect x="42" y="116" width="11" height="11" rx="2" fill="#1e2530"><title>2025-07-18: 0 contributions</title></rect>
<rect x="42" y="130" width="11" height="11" rx="2" fill="#1e2530"><title>2025-07-19: 0 contributions</title></rect>
<rect x="56" y="46" width="11" height="11" rx="2" fill="#1e2530"><title>2025-07-20: 0 contributions</title></rect>
<rect x="56" y="60" width="11" height="11" rx="2" fill="#1e2530"><title>2025-07-21: 0 contributions</title></rect>
<rect x="56" y="74" width="11" height="11" rx="2" fill="#1e2530"><title>2025-07-22: 0 contributions</title></rect>
<rect x="56" y="88" width="11" height="11" rx="2" fill="#1e2530"><title>2025-07-23: 0 contributions</title></rect>
<rect x="56" y="102" width="11" height="11" rx="2" fill="#1e2530"><title>2025-07-24: 0 contributions</title></rect>
<rect x="56" y="116" width="11" height="11" rx="2" fill="#1e2530"><title>2025-07-25: 0 contributions</title></rect>
<rect x="56" y="130" width="11" height="11" rx="2" fill="#1e2530"><title>2025-07-26: 0 contributions</title></rect>
<rect x="70" y="46" width="11" height="11" rx="2" fill="#1e2530"><title>2025-07-27: 0 contributions</title></rect>
<rect x="70" y="60" width="11" height="11" rx="2" fill="#1e2530"><title>2025-07-28: 0 contributions</title></rect>
<rect x="70" y="74" width="11" height="11" rx="2" fill="#1e2530"><title>2025-07-29: 0 contributions</title></rect>
<rect x="70" y="88" width="11" height="11" rx="2" fill="#1e2530"><title>2025-07-30: 0 contributions</title></rect>
<rect x="70" y="102" width="11" height="11" rx="2" fill="#1e2530"><title>2025-07-31: 0 contributions</title></rect>
<rect x="70" y="116" width="11" height="11" rx="2" fill="#1e2530"><title>2025-08-01: 0 contributions</title></rect>
<rect x="70" y="130" width="11" height="11" rx="2" fill="#1e2530"><title>2025-08-02: 0 contributions</title></rect>
<rect x="84" y="46" width="11" height="11" rx="2" fill="#1e2530"><title>2025-08-03: 0 contributions</title></rect>
<rect x="84" y="60" width="11" height="11" rx="2" fill="#1e2530"><title>2025-08-04: 0 contributions</title></rect>
<rect x="84" y="74" width="11" height="11" rx="2" fill="#1e2530"><title>2025-08-05: 0 contributions</title></rect>
<rect x="84" y="88" width="11" height="11" rx="2" fill="#1e2530"><title>2025-08-06: 0 contributions</title></rect>
<rect x="84" y="102" width="11" height="11" rx="2" fill="#1e2530"><title>2025-08-07: 0 contributions</title></rect>
<rect x="84" y="116" width="11" height="11" rx="2" fill="#1e2530"><title>2025-08-08: 0 contributions</title></rect>
<rect x="84" y="130" width="11" height="11" rx="2" fill="#1e2530"><title>2025-08-09: 0 contributions</title></rect>
<rect x="98" y="46" width="11" height="11" rx="2" fill="#1e2530"><title>2025-08-10: 0 contributions</title></rect>
<rect x="98" y="60" width="11" height="11" rx="2" fill="#1e2530"><title>2025-08-11: 0 contributions</title></rect>
<rect x="98" y="74" width="11" height="11" rx="2" fill="#1e2530"><title>2025-08-12: 0 contributions</title></rect>
<rect x="98" y="88" width="11" height="11" rx="2" fill="#1e2530"><title>2025-08-13: 0 contributions</title></rect>
<rect x="98" y="102" width="11" height="11" rx="2" fill="#1e2530"><title>2025-08-14: 0 contributions</title></rect>
<rect x="98" y="116" width="11" height="11" rx="2" fill="#1e2530"><title>2025-08-15: 0 contributions</title></rect>
<rect x="98" y="130" width="11" height="11" rx="2" fill="#1e2530"><title>2025-08-16: 0 contributions</title></rect>
<rect x="112" y="46" width="11" height="11" rx="2" fill="#1e2530"><title>2025-08-17: 0 contributions</title></rect>
<rect x="112" y="60" width="11" height="11" rx="2" fill="#1e2530"><title>2025-08-18: 0 contributions</title></rect>
<rect x="112" y="74" width="11" height="11" rx="2" fill="#1e2530"><title>2025-08-19: 0 contributions</title></rect>
<rect x="112" y="88" width="11" height="11" rx="2" fill="#1e2530"><title>2025-08-20: 0 contributions</title></rect>
<rect x="112" y="102" width="11" height="11" rx="2" fill="#1e2530"><title>2025-08-21: 0 contributions</title></rect>
<rect x="112" y="116" width="11" height="11" rx="2" fill="#1e2530"><title>2025-08-22: 0 contributions</title></rect>
<rect x="112" y="130" width="11" height="11" rx="2" fill="#1e2530"><title>2025-08-23: 0 contributions</title></rect>
<rect x="126" y="46" width="11" height="11" rx="2" fill="#1e2530"><title>2025-08-24: 0 contributions</title></rect>
<rect x="126" y="60" width="11" height="11" rx="2" fill="#1e2530"><title>2025-08-25: 0 contributions</title></rect>
<rect x="126" y="74" width="11" height="11" rx="2" fill="#1e2530"><title>2025-08-26: 0 contributions</title></rect>
<rect x="126" y="88" width="11" height="11" rx="2" fill="#1e2530"><title>2025-08-27: 0 contributions</title></rect>
<rect x="126" y="102" width="11" height="11" rx="2" fill="#1e2530"><title>2025-08-28: 0 contributions</title></rect>
<rect x="126" y="116" width="11" height="11" rx="2" fill="#1e2530"><title>2025-08-29: 0 contributions</title></rect>
<rect x="126" y="130" width="11" height="11" rx="2" fill="#1e2530"><title>2025-08-30: 0 contributions</title></rect>
<rect x="140" y="46" width="11" height="11" rx="2" fill="#1e2530"><title>2025-08-31: 0 contributions</title></rect>
<rect x="140" y="60" width="11" height="11" rx="2" fill="#1e2530"><title>2025-09-01: 0 contributions</title></rect>
<rect x="140" y="74" width="11" height="11" rx="2" fill="#1e2530"><title>2025-09-02: 0 contributions</title></rect>
<rect x="140" y="88" width="11" height="11" rx="2" fill="#1e2530"><title>2025-09-03: 0 contributions</title></rect>
<rect x="140" y="102" width="11" height="11" rx="2" fill="#1e2530"><title>2025-09-04: 0 contributions</title></rect>
<rect x="140" y="116" width="11" height="11" rx="2" fill="#1e2530"><title>2025-09-05: 0 contributions</title></rect>
<rect x="140" y="130" width="11" height="11" rx="2" fill="#1e2530"><title>2025-09-06: 0 contributions</title></rect>
<rect x="154" y="46" width="11" height="11" rx="2" fill="#1e2530"><title>2025-09-07: 0 contributions</title></rect>
<rect x="154" y="60" width="11" height="11" rx="2" fill="#1e2530"><title>2025-09-08: 0 contributions</title></rect>
<rect x="154" y="74" width="11" height="11" rx="2" fill="#1e2530"><title>2025-09-09: 0 contributions</title></rect>
<rect x="154" y="88" width="11" height="11" rx="2" fill="#1e2530"><title>2025-09-10: 0 contributions</title></rect>
<rect x="154" y="102" width="11" height="11" rx="2" fill="#1e2530"><title>2025-09-11: 0 contributions</title></rect>
<rect x="154" y="116" width="11" height="11" rx="2" fill="#1e2530"><title>2025-09-12: 0 contributions</title></rect>
<rect x="154" y="130" width="11" height="11" rx="2" fill="#1e2530"><title>2025-09-13: 0 contributions</title></rect>
<rect x="168" y="46" width="11" height="11" rx="2" fill="#1e2530"><title>2025-09-14: 0 contributions</title></rect>
<rect x="168" y="60" width="11" height="11" rx="2" fill="#1e2530"><title>2025-09-15: 0 contributions</title></rect>
<rect x="168" y="74" width="11" height="11" rx="2" fill="#1e2530"><title>2025-09-16: 0 contributions</title></rect>
<rect x="168" y="88" width="11" height="11" rx="2" fill="#1e2530"><title>2025-09-17: 0 contributions</title></rect>
<rect x="168" y="102" width="11" height="11" rx="2" fill="#1e2530"><title>2025-09-18: 0 contributions</title></rect>
<rect x="168" y="116" width="11" height="11" rx="2" fill="#1e2530"><title>2025-09-19: 0 contributions</title></rect>
<rect x="168" y="130" width="11" height="11" rx="2" fill="#1e2530"><title>2025-09-20: 0 contributions</title></rect>
<rect x="182" y="46" width="11" height="11" rx="2" fill="#1e2530"><title>2025-09-21: 0 contributions</title></rect>
<rect x="182" y="60" width="11" height="11" rx="2" fill="#1e2530"><title>2025-09-22: 0 contributions</title></rect>
<rect x="182" y="74" width="11" height="11" rx="2" fill="#1e2530"><title>2025-09-23: 0 contributions</title></rect>
<rect x="182" y="88" width="11" height="11" rx="2" fill="#1e2530"><title>2025-09-24: 0 contributions</title></rect>
<rect x="182" y="102" width="11" height="11" rx="2" fill="#1e2530"><title>2025-09-25: 0 contributions</title></rect>
<rect x="182" y="116" width="11" height="11" rx="2" fill="#1e2530"><title>2025-09-26: 0 contributions</title></rect>
<rect x="182" y="130" width="11" height="11" rx="2" fill="#1e2530"><title>2025-09-27: 0 contributions</title></rect>
<rect x="196" y="46" width="11" height="11" rx="2" fill="#1e2530"><title>2025-09-28: 0 contributions</title></rect>
<rect x="196" y="60" width="11" height="11" rx="2" fill="#1e2530"><title>2025-09-29: 0 contributions</title></rect>
<rect x="196" y="74" width="11" height="11" rx="2" fill="#1e2530"><title>2025-09-30: 0 contributions</title></rect>
<rect x="196" y="88" width="11" height="11" rx="2" fill="#1e2530"><title>2025-10-01: 0 contributions</title></rect>
<rect x="196" y="102" width="11" height="11" rx="2" fill="#1e2530"><title>2025-10-02: 0 contributions</title></rect>
<rect x="196" y="116" width="11" height="11" rx="2" fill="#1e2530"><title>2025-10-03: 0 contributions</title></rect>
<rect x="196" y="130" width="11" height="11" rx="2" fill="#1e2530"><title>2025-10-04: 0 contributions</title></rect>
<rect x="210" y="46" width="11" height="11" rx="2" fill="#1e2530"><title>2025-10-05: 0 contributions</title></rect>
<rect x="210" y="60" width="11" height="11" rx="2" fill="#1e2530"><title>2025-10-06: 0 contributions</title></rect>
<rect x="210" y="74" width="11" height="11" rx="2" fill="#1e2530"><title>2025-10-07: 0 contributions</title></rect>
<rect x="210" y="88" width="11" height="11" rx="2" fill="#1e2530"><title>2025-10-08: 0 contributions</title></rect>
<rect x="210" y="102" width="11" height="11" rx="2" fill="#1e2530"><title>2025-10-09: 0 contributions</title></rect>
<rect x="210" y="116" width="11" height="11" rx="2" fill="#1e2530"><title>2025-10-10: 0 contributions</title></rect>
<rect x="210" y="130" width="11" height="11" rx="2" fill="#1e2530"><title>2025-10-11: 0 contributions</title></rect>
<rect x="224" y="46" width="11" height="11" rx="2" fill="#1e2530"><title>2025-10-12: 0 contributions</title></rect>
<rect x="224" y="60" width="11" height="11" rx="2" fill="#1e2530"><title>2025-10-13: 0 contributions</title></rect>
<rect x="224" y="74" width="11" height="11" rx="2" fill="#1e2530"><title>2025-10-14: 0 contributions</title></rect>
<rect x="224" y="88" width="11" height="11" rx="2" fill="#1e2530"><title>2025-10-15: 0 contributions</title></rect>
<rect x="224" y="102" width="11" height="11" rx="2" fill="#1e2530"><title>2025-10-16: 0 contributions</title></rect>
<rect x="224" y="116" width="11" height="11" rx="2" fill="#1e2530"><title>2025-10-17: 0 contributions</title></rect>
<rect x="224" y="130" width="11" height="11" rx="2" fill="#1e2530"><title>2025-10-18: 0 contributions</title></rect>
<rect x="238" y="46" width="11" height="11" rx="2" fill="#1e2530"><title>2025-10-19: 0 contributions</title></rect>
<rect x="238" y="60" width="11" height="11" rx="2" fill="#1e2530"><title>2025-10-20: 0 contributions</title></rect>
<rect x="238" y="74" width="11" height="11" rx="2" fill="#1e2530"><title>2025-10-21: 0 contributions</title></rect>
<rect x="238" y="88" width="11" height="11" rx="2" fill="#1e2530"><title>2025-10-22: 0 contributions</title></rect>
<rect x="238" y="102" width="11" height="11" rx="2" fill="#1e2530"><title>2025-10-23: 0 contributions</title></rect>
<rect x="238" y="116" width="11" height="11" rx="2" fill="#1e2530"><title>2025-10-24: 0 contributions</title></rect>
<rect x="238" y="130" width="11" height="11" rx="2" fill="#1e2530"><title>2025-10-25: 0 contributions</title></rect>
<rect x="252" y="46" width="11" height="11" rx="2" fill="#1e2530"><title>2025-10-26: 0 contributions</title></rect>
<rect x="252" y="60" width="11" height="11" rx="2" fill="#1e2530"><title>2025-10-27: 0 contributions</title></rect>
<rect x="252" y="74" width="11" height="11" rx="2" fill="#1e2530"><title>2025-10-28: 0 contributions</title></rect>
<rect x="252" y="88" width="11" height="11" rx="2" fill="#1e2530"><title>2025-10-29: 0 contributions</title></rect>
<rect x="252" y="102" width="11" height="11" rx="2" fill="#1e2530"><title>2025-10-30: 0 contributions</title></rect>
<rect x="252" y="116" width="11" height="11" rx="2" fill="#1e2530"><title>2025-10-31: 0 contributions</title></rect>
<rect x="252" y="130" width="11" height="11" rx="2" fill="#1e2530"><title>2025-11-01: 0 contributions</title></rect>
<rect x="266" y="46" width="11" height="11" rx="2" fill="#1e2530"><title>2025-11-02: 0 contributions</title></rect>
<rect x="266" y="60" width="11" height="11" rx="2" fill="#1e2530"><title>2025-11-03: 0 contributions</title></rect>
<rect x="266" y="74" width="11" height="11" rx="2" fill="#1e2530"><title>2025-11-04: 0 contributions</title></rect>
<rect x="266" y="88" width="11" height="11" rx="2" fill="#1e2530"><title>2025-11-05: 0 contributions</title></rect>
<rect x="266" y="102" width="11" height="11" rx="2" fill="#1e2530"><title>2025-11-06: 0 contributions</title></rect>
<rect x="266" y="116" width="11" height="11" rx="2" fill="#1e2530"><title>2025-11-07: 0 contributions</title></rect>
<rect x="266" y="130" width="11" height="11" rx="2" fill="#1e2530"><title>2025-11-08: 0 contributions</title></rect>
<rect x="280" y="46" width="11" height="11" rx="2" fill="#1e2530"><title>2025-11-09: 0 contributions</title></rect>
<rect x="280" y="60" width="11" height="11" rx="2" fill="#1e2530"><title>2025-11-10: 0 contributions</title></rect>
<rect x="280" y="74" width="11" height="11" rx="2" fill="#1e2530"><title>2025-11-11: 0 contributions</title></rect>
<rect x="280" y="88" width="11" height="11" rx="2" fill="#1e2530"><title>2025-11-12: 0 contributions</title></rect>
<rect x="280" y="102" width="11" height="11" rx="2" fill="#1e2530"><title>2025-11-13: 0 contributions</title></rect>
<rect x="280" y="116" width="11" height="11" rx="2" fill="#1e2530"><title>2025-11-14: 0 contributions</title></rect>
<rect x="280" y="130" width="11" height="11" rx="2" fill="#1e2530"><title>2025-11-15: 0 contributions</title></rect>
<rect x="294" y="46" width="11" height="11" rx="2" fill="#1e2530"><title>2025-11-16: 0 contributions</title></rect>
<rect x="294" y="60" width="11" height="11" rx="2" fill="#1e2530"><title>2025-11-17: 0 contributions</title></rect>
<rect x="294" y="74" width="11" height="11" rx="2" fill="#1e2530"><title>2025-11-18: 0 contributions</title></rect>
<rect x="294" y="88" width="11" height="11" rx="2" fill="#1e2530"><title>2025-11-19: 0 contributions</title></rect>
<rect x="294" y="102" width="11" height="11" rx="2" fill="#1e2530"><title>2025-11-20: 0 contributions</title></rect>
<rect x="294" y="116" width="11" height="11" rx="2" fill="#1e2530"><title>2025-11-21: 0 contributions</title></rect>
<rect x="294" y="130" width="11" height="11" rx="2" fill="#1e2530"><title>2025-11-22: 0 contributions</title></rect>
<rect x="308" y="46" width="11" height="11" rx="2" fill="#1e2530"><title>2025-11-23: 0 contributions</title></rect>
<rect x="308" y="60" width="11" height="11" rx="2" fill="#1e2530"><title>2025-11-24: 0 contributions</title></rect>
<rect x="308" y="74" width="11" height="11" rx="2" fill="#1e2530"><title>2025-11-25: 0 contributions</title></rect>
<rect x="308" y="88" width="11" height="11" rx="2" fill="#1e2530"><title>2025-11-26: 0 contributions</title></rect>
<rect x="308" y="102" width="11" height="11" rx="2" fill="#1e2530"><title>2025-11-27: 0 contributions</title></rect>
<rect x="308" y="116" width="11" height="11" rx="2" fill="#1e2530"><title>2025-11-28: 0 contributions</title></rect>
<rect x="308" y="130" width="11" height="11" rx="2" fill="#1e2530"><title>2025-11-29: 0 contributions</title></rect>
<rect x="322" y="46" width="11" height="11" rx="2" fill="#1e2530"><title>2025-11-30: 0 contributions</title></rect>
<rect x="322" y="60" width="11" height="11" rx="2" fill="#1e2530"><title>2025-12-01: 0 contributions</title></rect>
<rect x="322" y="74" width="11" height="11" rx="2" fill="#1e2530"><title>2025-12-02: 0 contributions</title></rect>
<rect x="322" y="88" width="11" height="11" rx="2" fill="#1e2530"><title>2025-12-03: 0 contributions</title></rect>
<rect x="322" y="102" width="11" height="11" rx="2" fill="#1e2530"><title>2025-12-04: 0 contributions</title></rect>
<rect x="322" y="116" width="11" height="11" rx="2" fill="#1e2530"><title>2025-12-05: 0 contributions</title></rect>
<rect x="322" y="130" width="11" height="11" rx="2" fill="#1e2530"><title>2025-12-06: 0 contributions</title></rect>
<rect x="336" y="46" width="11" height="11" rx="2" fill="#9be9a8"><title>2025-12-07: 12 contributions</title></rect>
<rect x="336" y="60" width="11" height="11" rx="2" fill="#1e2530"><title>2025-12-08: 0 contributions</title></rect>
<rect x="336" y="74" width="11" height="11" rx="2" fill="#1e2530"><title>2025-12-09: 0 contributions</title></rect>
<rect x="336" y="88" width="11" height="11" rx="2" fill="#1e2530"><title>2025-12-10: 0 contributions</title></rect>
<rect x="336" y="102" width="11" height="11" rx="2" fill="#1e2530"><title>2025-12-11: 0 contributions</title></rect>
<rect x="336" y="116" width="11" height="11" rx="2" fill="#1e2530"><title>2025-12-12: 0 contributions</title></rect>
<rect x="336" y="130" width="11" height="11" rx="2" fill="#1e2530"><title>2025-12-13: 0 contributions</title></rect>
<rect x="350" y="46" width="11" height="11" rx="2" fill="#1e2530"><title>2025-12-14: 0 contributions</title></rect>
<rect x="350" y="60" width="11" height="11" rx="2" fill="#1e2530"><title>2025-12-15: 0 contributions</title></rect>
<rect x="350" y="74" width="11" height="11" rx="2" fill="#1e2530"><title>2025-12-16: 0 contributions</title></rect>
<rect x="350" y="88" width="11" height="11" rx="2" fill="#1e2530"><title>2025-12-17: 0 contributions</title></rect>
<rect x="350" y="102" width="11" height="11" rx="2" fill="#1e2530"><title>2025-12-18: 0 contributions</title></rect>
<rect x="350" y="116" width="11" height="11" rx="2" fill="#1e2530"><title>2025-12-19: 0 contributions</title></rect>
<rect x="350" y="130" width="11" height="11" rx="2" fill="#1e2530"><title>2025-12-20: 0 contributions</title></rect>
<rect x="364" y="46" width="11" height="11" rx="2" fill="#1e2530"><title>2025-12-21: 0 contributions</title></rect>
<rect x="364" y="60" width="11" height="11" rx="2" fill="#1e2530"><title>2025-12-22: 0 contributions</title></rect>
<rect x="364" y="74" width="11" height="11" rx="2" fill="#1e2530"><title>2025-12-23: 0 contributions</title></rect>
<rect x="364" y="88" width="11" height="11" rx="2" fill="#1e2530"><title>2025-12-24: 0 contributions</title></rect>
<rect x="364" y="102" width="11" height="11" rx="2" fill="#1e2530"><title>2025-12-25: 0 contributions</title></rect>
<rect x="364" y="116" width="11" height="11" rx="2" fill="#1e2530"><title>2025-12-26: 0 contributions</title></rect>
<rect x="364" y="130" width="11" height="11" rx="2" fill="#1e2530"><title>2025-12-27: 0 contributions</title></rect>
<rect x="378" y="46" width="11" height="11" rx="2" fill="#1e2530"><title>2025-12-28: 0 contributions</title></rect>
<rect x="378" y="60" width="11" height="11" rx="2" fill="#1e2530"><title>2025-12-29: 0 contributions</title></rect>
<rect x="378" y="74" width="11" height="11" rx="2" fill="#1e2530"><title>2025-12-30: 0 contributions</title></rect>
<rect x="378" y="88" width="11" height="11" rx="2" fill="#1e2530"><title>2025-12-31: 0 contributions</title></rect>
<rect x="378" y="102" width="11" height="11" rx="2" fill="#1e2530"><title>2026-01-01: 0 contributions</title></rect>
<rect x="378" y="116" width="11" height="11" rx="2" fill="#1e2530"><title>2026-01-02: 0 contributions</title></rect>
<rect x="378" y="130" width="11" height="11" rx="2" fill="#1e2530"><title>2026-01-03: 0 contributions</title></rect>
<rect x="392" y="46" width="11" height="11" rx="2" fill="#1e2530"><title>2026-01-04: 0 contributions</title></rect>
<rect x="392" y="60" width="11" height="11" rx="2" fill="#1e2530"><title>2026-01-05: 0 contributions</title></rect>
<rect x="392" y="74" width="11" height="11" rx="2" fill="#1e2530"><title>2026-01-06: 0 contributions</title></rect>
<rect x="392" y="88" width="11" height="11" rx="2" fill="#1e2530"><title>2026-01-07: 0 contributions</title></rect>
<rect x="392" y="102" width="11" height="11" rx="2" fill="#1e2530"><title>2026-01-08: 0 contributions</title></rect>
<rect x="392" y="116" width="11" height="11" rx="2" fill="#1e2530"><title>2026-01-09: 0 contributions</title></rect>
<rect x="392" y="130" width="11" height="11" rx="2" fill="#1e2530"><title>2026-01-10: 0 contributions</title></rect>
<rect x="406" y="46" width="11" height="11" rx="2" fill="#1e2530"><title>2026-01-11: 0 contributions</title></rect>
<rect x="406" y="60" width="11" height="11" rx="2" fill="#1e2530"><title>2026-01-12: 0 contributions</title></rect>
<rect x="406" y="74" width="11" height="11" rx="2" fill="#1e2530"><title>2026-01-13: 0 contributions</title></rect>
<rect x="406" y="88" width="11" height="11" rx="2" fill="#1e2530"><title>2026-01-14: 0 contributions</title></rect>
<rect x="406" y="102" width="11" height="11" rx="2" fill="#1e2530"><title>2026-01-15: 0 contributions</title></rect>
<rect x="406" y="116" width="11" height="11" rx="2" fill="#1e2530"><title>2026-01-16: 0 contributions</title></rect>
<rect x="406" y="130" width="11" height="11" rx="2" fill="#1e2530"><title>2026-01-17: 0 contributions</title></rect>
<rect x="420" y="46" width="11" height="11" rx="2" fill="#1e2530"><title>2026-01-18: 0 contributions</title></rect>
<rect x="420" y="60" width="11" height="11" rx="2" fill="#1e2530"><title>2026-01-19: 0 contributions</title></rect>
<rect x="420" y="74" width="11" height="11" rx="2" fill="#1e2530"><title>2026-01-20: 0 contributions</title></rect>
<rect x="420" y="88" width="11" height="11" rx="2" fill="#1e2530"><title>2026-01-21: 0 contributions</title></rect>
<rect x="420" y="102" width="11" height="11" rx="2" fill="#1e2530"><title>2026-01-22: 0 contributions</title></rect>
<rect x="420" y="116" width="11" height="11" rx="2" fill="#1e2530"><title>2026-01-23: 0 contributions</title></rect>
<rect x="420" y="130" width="11" height="11" rx="2" fill="#1e2530"><title>2026-01-24: 0 contributions</title></rect>
<rect x="434" y="46" width="11" height="11" rx="2" fill="#1e2530"><title>2026-01-25: 0 contributions</title></rect>
<rect x="434" y="60" width="11" height="11" rx="2" fill="#1e2530"><title>2026-01-26: 0 contributions</title></rect>
<rect x="434" y="74" width="11" height="11" rx="2" fill="#1e2530"><title>2026-01-27: 0 contributions</title></rect>
<rect x="434" y="88" width="11" height="11" rx="2" fill="#1e2530"><title>2026-01-28: 0 contributions</title></rect>
<rect x="434" y="102" width="11" height="11" rx="2" fill="#1e2530"><title>2026-01-29: 0 contributions</title></rect>
<rect x="434" y="116" width="11" height="11" rx="2" fill="#1e2530"><title>2026-01-30: 0 contributions</title></rect>
<rect x="434" y="130" width="11" height="11" rx="2" fill="#1e2530"><title>2026-01-31: 0 contributions</title></rect>
<rect x="448" y="46" width="11" height="11" rx="2" fill="#1e2530"><title>2026-02-01: 0 contributions</title></rect>
<rect x="448" y="60" width="11" height="11" rx="2" fill="#1e2530"><title>2026-02-02: 0 contributions</title></rect>
<rect x="448" y="74" width="11" height="11" rx="2" fill="#1e2530"><title>2026-02-03: 0 contributions</title></rect>
<rect x="448" y="88" width="11" height="11" rx="2" fill="#1e2530"><title>2026-02-04: 0 contributions</title></rect>
<rect x="448" y="102" width="11" height="11" rx="2" fill="#1e2530"><title>2026-02-05: 0 contributions</title></rect>
<rect x="448" y="116" width="11" height="11" rx="2" fill="#1e2530"><title>2026-02-06: 0 contributions</title></rect>
<rect x="448" y="130" width="11" height="11" rx="2" fill="#1e2530"><title>2026-02-07: 0 contributions</title></rect>
<rect x="462" y="46" width="11" height="11" rx="2" fill="#1e2530"><title>2026-02-08: 0 contributions</title></rect>
<rect x="462" y="60" width="11" height="11" rx="2" fill="#1e2530"><title>2026-02-09: 0 contributions</title></rect>
<rect x="462" y="74" width="11" height="11" rx="2" fill="#1e2530"><title>2026-02-10: 0 contributions</title></rect>
<rect x="462" y="88" width="11" height="11" rx="2" fill="#1e2530"><title>2026-02-11: 0 contributions</title></rect>
<rect x="462" y="102" width="11" height="11" rx="2" fill="#1e2530"><title>2026-02-12: 0 contributions</title></rect>
<rect x="462" y="116" width="11" height="11" rx="2" fill="#1e2530"><title>2026-02-13: 0 contributions</title></rect>
<rect x="462" y="130" width="11" height="11" rx="2" fill="#1e2530"><title>2026-02-14: 0 contributions</title></rect>
<rect x="476" y="46" width="11" height="11" rx="2" fill="#1e2530"><title>2026-02-15: 0 contributions</title></rect>
<rect x="476" y="60" width="11" height="11" rx="2" fill="#1e2530"><title>2026-02-16: 0 contributions</title></rect>
<rect x="476" y="74" width="11" height="11" rx="2" fill="#1e2530"><title>2026-02-17: 0 contributions</title></rect>
<rect x="476" y="88" width="11" height="11" rx="2" fill="#1e2530"><title>2026-02-18: 0 contributions</title></rect>
<rect x="476" y="102" width="11" height="11" rx="2" fill="#1e2530"><title>2026-02-19: 0 contributions</title></rect>
<rect x="476" y="116" width="11" height="11" rx="2" fill="#1e2530"><title>2026-02-20: 0 contributions</title></rect>
<rect x="476" y="130" width="11" height="11" rx="2" fill="#1e2530"><title>2026-02-21: 0 contributions</title></rect>
<rect x="490" y="46" width="11" height="11" rx="2" fill="#1e2530"><title>2026-02-22: 0 contributions</title></rect>
<rect x="490" y="60" width="11" height="11" rx="2" fill="#1e2530"><title>2026-02-23: 0 contributions</title></rect>
<rect x="490" y="74" width="11" height="11" rx="2" fill="#1e2530"><title>2026-02-24: 0 contributions</title></rect>
<rect x="490" y="88" width="11" height="11" rx="2" fill="#1e2530"><title>2026-02-25: 0 contributions</title></rect>
<rect x="490" y="102" width="11" height="11" rx="2" fill="#1e2530"><title>2026-02-26: 0 contributions</title></rect>
<rect x="490" y="116" width="11" height="11" rx="2" fill="#1e2530"><title>2026-02-27: 0 contributions</title></rect>
<rect x="490" y="130" width="11" height="11" rx="2" fill="#1e2530"><title>2026-02-28: 0 contributions</title></rect>
<rect x="504" y="46" width="11" height="11" rx="2" fill="#1e2530"><title>2026-03-01: 0 contributions</title></rect>
<rect x="504" y="60" width="11" height="11" rx="2" fill="#1e2530"><title>2026-03-02: 0 contributions</title></rect>
<rect x="504" y="74" width="11" height="11" rx="2" fill="#1e2530"><title>2026-03-03: 0 contributions</title></rect>
<rect x="504" y="88" width="11" height="11" rx="2" fill="#1e2530"><title>2026-03-04: 0 contributions</title></rect>
<rect x="504" y="102" width="11" height="11" rx="2" fill="#1e2530"><title>2026-03-05: 0 contributions</title></rect>
<rect x="504" y="116" width="11" height="11" rx="2" fill="#1e2530"><title>2026-03-06: 0 contributions</title></rect>
<rect x="504" y="130" width="11" height="11" rx="2" fill="#1e2530"><title>2026-03-07: 0 contributions</title></rect>
<rect x="518" y="46" width="11" height="11" rx="2" fill="#1e2530"><title>2026-03-08: 0 contributions</title></rect>
<rect x="518" y="60" width="11" height="11" rx="2" fill="#1e2530"><title>2026-03-09: 0 contributions</title></rect>
<rect x="518" y="74" width="11" height="11" rx="2" fill="#1e2530"><title>2026-03-10: 0 contributions</title></rect>
<rect x="518" y="88" width="11" height="11" rx="2" fill="#1e2530"><title>2026-03-11: 0 contributions</title></rect>
<rect x="518" y="102" width="11" height="11" rx="2" fill="#1e2530"><title>2026-03-12: 0 contributions</title></rect>
<rect x="518" y="116" width="11" height="11" rx="2" fill="#1e2530"><title>2026-03-13: 0 contributions</title></rect>
<rect x="518" y="130" width="11" height="11" rx="2" fill="#1e2530"><title>2026-03-14: 0 contributions</title></rect>
<rect x="532" y="46" width="11" height="11" rx="2" fill="#1e2530"><title>2026-03-15: 0 contributions</title></rect>
<rect x="532" y="60" width="11" height="11" rx="2" fill="#1e2530"><title>2026-03-16: 0 contributions</title></rect>
<rect x="532" y="74" width="11" height="11" rx="2" fill="#1e2530"><title>2026-03-17: 0 contributions</title></rect>
<rect x="532" y="88" width="11" height="11" rx="2" fill="#1e2530"><title>2026-03-18: 0 contributions</title></rect>
<rect x="532" y="102" width="11" height="11" rx="2" fill="#1e2530"><title>2026-03-19: 0 contributions</title></rect>
<rect x="532" y="116" width="11" height="11" rx="2" fill="#1e2530"><title>2026-03-20: 0 contributions</title></rect>
<rect x="532" y="130" width="11" height="11" rx="2" fill="#1e2530"><title>2026-03-21: 0 contributions</title></rect>
<rect x="546" y="46" width="11" height="11" rx="2" fill="#1e2530"><title>2026-03-22: 0 contributions</title></rect>
<rect x="546" y="60" width="11" height="11" rx="2" fill="#1e2530"><title>2026-03-23: 0 contributions</title></rect>
<rect x="546" y="74" width="11" height="11" rx="2" fill="#1e2530"><title>2026-03-24: 0 contributions</title></rect>
<rect x="546" y="88" width="11" height="11" rx="2" fill="#1e2530"><title>2026-03-25: 0 contributions</title></rect>
<rect x="546" y="102" width="11" height="11" rx="2" fill="#1e2530"><title>2026-03-26: 0 contributions</title></rect>
<rect x="546" y="116" width="11" height="11" rx="2" fill="#1e2530"><title>2026-03-27: 0 contributions</title></rect>
<rect x="546" y="130" width="11" height="11" rx="2" fill="#1e2530"><title>2026-03-28: 0 contributions</title></rect>
<rect x="560" y="46" width="11" height="11" rx="2" fill="#1e2530"><title>2026-03-29: 0 contributions</title></rect>
<rect x="560" y="60" width="11" height="11" rx="2" fill="#1e2530"><title>2026-03-30: 0 contributions</title></rect>
<rect x="560" y="74" width="11" height="11" rx="2" fill="#1e2530"><title>2026-03-31: 0 contributions</title></rect>
<rect x="560" y="88" width="11" height="11" rx="2" fill="#1e2530"><title>2026-04-01: 0 contributions</title></rect>
<rect x="560" y="102" width="11" height="11" rx="2" fill="#1e2530"><title>2026-04-02: 0 contributions</title></rect>
<rect x="560" y="116" width="11" height="11" rx="2" fill="#1e2530"><title>2026-04-03: 0 contributions</title></rect>
<rect x="560" y="130" width="11" height="11" rx="2" fill="#1e2530"><title>2026-04-04: 0 contributions</title></rect>
<rect x="574" y="46" width="11" height="11" rx="2" fill="#1e2530"><title>2026-04-05: 0 contributions</title></rect>
<rect x="574" y="60" width="11" height="11" rx="2" fill="#1e2530"><title>2026-04-06: 0 contributions</title></rect>
<rect x="574" y="74" width="11" height="11" rx="2" fill="#1e2530"><title>2026-04-07: 0 contributions</title></rect>
<rect x="574" y="88" width="11" height="11" rx="2" fill="#1e2530"><title>2026-04-08: 0 contributions</title></rect>
<rect x="574" y="102" width="11" height="11" rx="2" fill="#9be9a8"><title>2026-04-09: 9 contributions</title></rect>
<rect x="574" y="116" width="11" height="11" rx="2" fill="#1e2530"><title>2026-04-10: 0 contributions</title></rect>
<rect x="574" y="130" width="11" height="11" rx="2" fill="#1e2530"><title>2026-04-11: 0 contributions</title></rect>
<rect x="588" y="46" width="11" height="11" rx="2" fill="#1e2530"><title>2026-04-12: 0 contributions</title></rect>
<rect x="588" y="60" width="11" height="11" rx="2" fill="#1e2530"><title>2026-04-13: 0 contributions</title></rect>
<rect x="588" y="74" width="11" height="11" rx="2" fill="#1e2530"><title>2026-04-14: 0 contributions</title></rect>
<rect x="588" y="88" width="11" height="11" rx="2" fill="#1e2530"><title>2026-04-15: 0 contributions</title></rect>
<rect x="588" y="102" width="11" height="11" rx="2" fill="#1e2530"><title>2026-04-16: 0 contributions</title></rect>
<rect x="588" y="116" width="11" height="11" rx="2" fill="#1e2530"><title>2026-04-17: 0 contributions</title></rect>
<rect x="588" y="130" width="11" height="11" rx="2" fill="#1e2530"><title>2026-04-18: 0 contributions</title></rect>
<rect x="602" y="46" width="11" height="11" rx="2" fill="#1e2530"><title>2026-04-19: 0 contributions</title></rect>
<rect x="602" y="60" width="11" height="11" rx="2" fill="#1e2530"><title>2026-04-20: 0 contributions</title></rect>
<rect x="602" y="74" width="11" height="11" rx="2" fill="#1e2530"><title>2026-04-21: 0 contributions</title></rect>
<rect x="602" y="88" width="11" height="11" rx="2" fill="#1e2530"><title>2026-04-22: 0 contributions</title></rect>
<rect x="602" y="102" width="11" height="11" rx="2" fill="#1e2530"><title>2026-04-23: 0 contributions</title></rect>
<rect x="602" y="116" width="11" height="11" rx="2" fill="#1e2530"><title>2026-04-24: 0 contributions</title></rect>
<rect x="602" y="130" width="11" height="11" rx="2" fill="#1e2530"><title>2026-04-25: 0 contributions</title></rect>
<rect x="616" y="46" width="11" height="11" rx="2" fill="#30a14e"><title>2026-04-26: 54 contributions</title></rect>
<rect x="616" y="60" width="11" height="11" rx="2" fill="#9be9a8"><title>2026-04-27: 1 contributions</title></rect>
<rect x="616" y="74" width="11" height="11" rx="2" fill="#30a14e"><title>2026-04-28: 45 contributions</title></rect>
<rect x="616" y="88" width="11" height="11" rx="2" fill="#216e39"><title>2026-04-29: 66 contributions</title></rect>
<rect x="616" y="102" width="11" height="11" rx="2" fill="#30a14e"><title>2026-04-30: 49 contributions</title></rect>
<rect x="616" y="116" width="11" height="11" rx="2" fill="#40c463"><title>2026-05-01: 24 contributions</title></rect>
<rect x="616" y="130" width="11" height="11" rx="2" fill="#9be9a8"><title>2026-05-02: 18 contributions</title></rect>
<rect x="630" y="46" width="11" height="11" rx="2" fill="#30a14e"><title>2026-05-03: 56 contributions</title></rect>
<rect x="630" y="60" width="11" height="11" rx="2" fill="#40c463"><title>2026-05-04: 28 contributions</title></rect>
<rect x="630" y="74" width="11" height="11" rx="2" fill="#9be9a8"><title>2026-05-05: 16 contributions</title></rect>
<rect x="630" y="88" width="11" height="11" rx="2" fill="#1e2530"><title>2026-05-06: 0 contributions</title></rect>
<rect x="630" y="102" width="11" height="11" rx="2" fill="#9be9a8"><title>2026-05-07: 11 contributions</title></rect>
<rect x="630" y="116" width="11" height="11" rx="2" fill="#1e2530"><title>2026-05-08: 0 contributions</title></rect>
<rect x="630" y="130" width="11" height="11" rx="2" fill="#1e2530"><title>2026-05-09: 0 contributions</title></rect>
<rect x="644" y="46" width="11" height="11" rx="2" fill="#1e2530"><title>2026-05-10: 0 contributions</title></rect>
<rect x="644" y="60" width="11" height="11" rx="2" fill="#1e2530"><title>2026-05-11: 0 contributions</title></rect>
<rect x="644" y="74" width="11" height="11" rx="2" fill="#1e2530"><title>2026-05-12: 0 contributions</title></rect>
<rect x="644" y="88" width="11" height="11" rx="2" fill="#40c463"><title>2026-05-13: 20 contributions</title></rect>
<rect x="644" y="102" width="11" height="11" rx="2" fill="#1e2530"><title>2026-05-14: 0 contributions</title></rect>
<rect x="644" y="116" width="11" height="11" rx="2" fill="#9be9a8"><title>2026-05-15: 2 contributions</title></rect>
<rect x="644" y="130" width="11" height="11" rx="2" fill="#9be9a8"><title>2026-05-16: 3 contributions</title></rect>
<rect x="658" y="46" width="11" height="11" rx="2" fill="#1e2530"><title>2026-05-17: 0 contributions</title></rect>
<rect x="658" y="60" width="11" height="11" rx="2" fill="#1e2530"><title>2026-05-18: 0 contributions</title></rect>
<rect x="658" y="74" width="11" height="11" rx="2" fill="#1e2530"><title>2026-05-19: 0 contributions</title></rect>
<rect x="658" y="88" width="11" height="11" rx="2" fill="#1e2530"><title>2026-05-20: 0 contributions</title></rect>
<rect x="658" y="102" width="11" height="11" rx="2" fill="#1e2530"><title>2026-05-21: 0 contributions</title></rect>
<rect x="658" y="116" width="11" height="11" rx="2" fill="#1e2530"><title>2026-05-22: 0 contributions</title></rect>
<rect x="658" y="130" width="11" height="11" rx="2" fill="#1e2530"><title>2026-05-23: 0 contributions</title></rect>
<rect x="672" y="46" width="11" height="11" rx="2" fill="#9be9a8"><title>2026-05-24: 10 contributions</title></rect>
<rect x="672" y="60" width="11" height="11" rx="2" fill="#9be9a8"><title>2026-05-25: 9 contributions</title></rect>
<rect x="672" y="74" width="11" height="11" rx="2" fill="#1e2530"><title>2026-05-26: 0 contributions</title></rect>
<rect x="672" y="88" width="11" height="11" rx="2" fill="#1e2530"><title>2026-05-27: 0 contributions</title></rect>
<rect x="672" y="102" width="11" height="11" rx="2" fill="#1e2530"><title>2026-05-28: 0 contributions</title></rect>
<rect x="672" y="116" width="11" height="11" rx="2" fill="#1e2530"><title>2026-05-29: 0 contributions</title></rect>
<rect x="672" y="130" width="11" height="11" rx="2" fill="#1e2530"><title>2026-05-30: 0 contributions</title></rect>
<rect x="686" y="46" width="11" height="11" rx="2" fill="#1e2530"><title>2026-05-31: 0 contributions</title></rect>
<rect x="686" y="60" width="11" height="11" rx="2" fill="#1e2530"><title>2026-06-01: 0 contributions</title></rect>
<rect x="686" y="74" width="11" height="11" rx="2" fill="#1e2530"><title>2026-06-02: 0 contributions</title></rect>
<rect x="686" y="88" width="11" height="11" rx="2" fill="#1e2530"><title>2026-06-03: 0 contributions</title></rect>
<rect x="686" y="102" width="11" height="11" rx="2" fill="#9be9a8"><title>2026-06-04: 7 contributions</title></rect>
<rect x="686" y="116" width="11" height="11" rx="2" fill="#1e2530"><title>2026-06-05: 0 contributions</title></rect>
<rect x="686" y="130" width="11" height="11" rx="2" fill="#1e2530"><title>2026-06-06: 0 contributions</title></rect>
<rect x="700" y="46" width="11" height="11" rx="2" fill="#1e2530"><title>2026-06-07: 0 contributions</title></rect>
<rect x="700" y="60" width="11" height="11" rx="2" fill="#1e2530"><title>2026-06-08: 0 contributions</title></rect>
<rect x="700" y="74" width="11" height="11" rx="2" fill="#1e2530"><title>2026-06-09: 0 contributions</title></rect>
<rect x="700" y="88" width="11" height="11" rx="2" fill="#1e2530"><title>2026-06-10: 0 contributions</title></rect>
<rect x="700" y="102" width="11" height="11" rx="2" fill="#40c463"><title>2026-06-11: 21 contributions</title></rect>
<rect x="700" y="116" width="11" height="11" rx="2" fill="#40c463"><title>2026-06-12: 26 contributions</title></rect>
<rect x="700" y="130" width="11" height="11" rx="2" fill="#40c463"><title>2026-06-13: 22 contributions</title></rect>
<rect x="714" y="46" width="11" height="11" rx="2" fill="#1e2530"><title>2026-06-14: 0 contributions</title></rect>
<rect x="714" y="60" width="11" height="11" rx="2" fill="#1e2530"><title>2026-06-15: 0 contributions</title></rect>
<rect x="714" y="74" width="11" height="11" rx="2" fill="#1e2530"><title>2026-06-16: 0 contributions</title></rect>
<rect x="714" y="88" width="11" height="11" rx="2" fill="#9be9a8"><title>2026-06-17: 18 contributions</title></rect>
<rect x="714" y="102" width="11" height="11" rx="2" fill="#40c463"><title>2026-06-18: 22 contributions</title></rect>
<rect x="714" y="116" width="11" height="11" rx="2" fill="#1e2530"><title>2026-06-19: 0 contributions</title></rect>
<rect x="714" y="130" width="11" height="11" rx="2" fill="#216e39"><title>2026-06-20: 75 contributions</title></rect>
<rect x="728" y="46" width="11" height="11" rx="2" fill="#1e2530"><title>2026-06-21: 0 contributions</title></rect>
<rect x="728" y="60" width="11" height="11" rx="2" fill="#40c463"><title>2026-06-22: 28 contributions</title></rect>
<rect x="728" y="74" width="11" height="11" rx="2" fill="#30a14e"><title>2026-06-23: 41 contributions</title></rect>
<rect x="728" y="88" width="11" height="11" rx="2" fill="#40c463"><title>2026-06-24: 19 contributions</title></rect>
<rect x="728" y="102" width="11" height="11" rx="2" fill="#1e2530"><title>2026-06-25: 0 contributions</title></rect>
<rect x="728" y="116" width="11" height="11" rx="2" fill="#1e2530"><title>2026-06-26: 0 contributions</title></rect>
<rect x="728" y="130" width="11" height="11" rx="2" fill="#30a14e"><title>2026-06-27: 43 contributions</title></rect>
<rect x="742" y="46" width="11" height="11" rx="2" fill="#30a14e"><title>2026-06-28: 45 contributions</title></rect>
<rect x="742" y="60" width="11" height="11" rx="2" fill="#1e2530"><title>2026-06-29: 0 contributions</title></rect>
<rect x="742" y="74" width="11" height="11" rx="2" fill="#9be9a8"><title>2026-06-30: 2 contributions</title></rect>
<rect x="742" y="88" width="11" height="11" rx="2" fill="#40c463"><title>2026-07-01: 28 contributions</title></rect>
<rect x="742" y="102" width="11" height="11" rx="2" fill="#40c463"><title>2026-07-02: 22 contributions</title></rect>
<rect x="742" y="116" width="11" height="11" rx="2" fill="#40c463"><title>2026-07-03: 20 contributions</title></rect>
<rect x="742" y="130" width="11" height="11" rx="2" fill="#216e39"><title>2026-07-04: 58 contributions</title></rect>
<rect x="756" y="46" width="11" height="11" rx="2" fill="#40c463"><title>2026-07-05: 21 contributions</title></rect>
<rect x="756" y="60" width="11" height="11" rx="2" fill="#30a14e"><title>2026-07-06: 56 contributions</title></rect>
<rect x="756" y="74" width="11" height="11" rx="2" fill="#9be9a8"><title>2026-07-07: 14 contributions</title></rect>
<rect x="756" y="88" width="11" height="11" rx="2" fill="#9be9a8"><title>2026-07-08: 10 contributions</title></rect>
<rect x="756" y="102" width="11" height="11" rx="2" fill="#9be9a8"><title>2026-07-09: 2 contributions</title></rect>
<rect x="756" y="116" width="11" height="11" rx="2" fill="#9be9a8"><title>2026-07-10: 18 contributions</title></rect>
<rect x="756" y="130" width="11" height="11" rx="2" fill="#40c463"><title>2026-07-11: 33 contributions</title></rect>
<rect x="770" y="46" width="11" height="11" rx="2" fill="#9be9a8"><title>2026-07-12: 18 contributions</title></rect>
<rect x="770" y="60" width="11" height="11" rx="2" fill="#40c463"><title>2026-07-13: 20 contributions</title></rect>
<rect x="770" y="74" width="11" height="11" rx="2" fill="#40c463"><title>2026-07-14: 20 contributions</title></rect>
<rect x="770" y="88" width="11" height="11" rx="2" fill="#40c463"><title>2026-07-15: 30 contributions</title></rect>
<rect x="770" y="102" width="11" height="11" rx="2" fill="#9be9a8"><title>2026-07-16: 16 contributions</title></rect>


  <text x="42" y="174" class="stat-num">1,188</text>
  <text x="85.5" y="174" class="stat-txt"> contributions in the last year</text>

  <text x="42" y="194" class="dim">current streak </text>
  <text x="134" y="194" class="stat-num">17 days</text>
  <text x="190.4" y="194" class="dim"> · longest </text>
  <text x="262.4" y="194" class="stat-num">17 days</text>

  <text x="784" y="174" text-anchor="end" class="dim">07-13-2025 &#8594; 07-16-2026</text>
  <text x="784" y="194" text-anchor="end" class="dim">best day <tspan class="stat-num">75</tspan> on 06-20-2026</text>
</svg>